<svg width="365" height="256" viewBox="0 0 365 256" shape-rendering="geometricPrecision" xmlns="http://www.w3.org/2000/svg" xmlns:xlink="http://www.w3.org/1999/xlink"> <defs><linearGradient id="stroke-fill-aZ0Z-3o-aZ0Z-3p" x1="3.8" y1="0" x2="-6.87" y2="0"><stop offset="0.140625" stop-color="#9ECB9F" stop-opacity="1"></stop><stop offset="0.48125" stop-color="#337AD6" stop-opacity="1"></stop></linearGradient></defs><path d="M105.301 0Q105.301 -0.122817 105.289 -0.245043Q105.277 -0.367269 105.253 -0.487726Q105.229 -0.608183 105.193 -0.725712Q105.157 -0.84324 105.11 -0.956709Q105.063 -1.07018 105.006 -1.17849Q104.948 -1.28681 104.879 -1.38893Q104.811 -1.49104 104.733 -1.58598Q104.655 -1.68092 104.569 -1.76777Q104.482 -1.85461 104.387 -1.93253Q104.292 -2.01044 104.19 -2.07867Q104.088 -2.14691 103.979 -2.2048Q103.871 -2.2627 103.757 -2.3097Q103.644 -2.3567 103.526 -2.39235Q103.409 -2.428 103.288 -2.45196Q103.168 -2.47592 103.046 -2.48796Q102.924 -2.5 102.801 -2.5L0 -2.5Q-0.122817 -2.5 -0.245043 -2.48796Q-0.367269 -2.47592 -0.487726 -2.45196Q-0.608183 -2.428 -0.725712 -2.39235Q-0.84324 -2.3567 -0.956709 -2.3097Q-1.07018 -2.2627 -1.17849 -2.2048Q-1.28681 -2.14691 -1.38893 -2.07867Q-1.49104 -2.01044 -1.58598 -1.93253Q-1.68092 -1.85461 -1.76777 -1.76777Q-1.85461 -1.68092 -1.93253 -1.58598Q-2.01044 -1.49104 -2.07867 -1.38893Q-2.14691 -1.28681 -2.2048 -1.17849Q-2.2627 -1.07018 -2.3097 -0.956709Q-2.3567 -0.84324 -2.39235 -0.725712Q-2.428 -0.608183 -2.45196 -0.487726Q-2.47592 -0.367269 -2.48796 -0.245043Q-2.5 -0.122817 -2.5 0Q-2.5 0.122817 -2.48796 0.245043Q-2.47592 0.367269 -2.45196 0.487726Q-2.428 0.608183 -2.39235 0.725712Q-2.3567 0.84324 -2.3097 0.956709Q-2.2627 1.07018 -2.2048 1.17849Q-2.14691 1.28681 -2.07867 1.38893Q-2.01044 1.49104 -1.93253 1.58598Q-1.85461 1.68092 -1.76777 1.76777Q-1.68092 1.85461 -1.58598 1.93253Q-1.49104 2.01044 -1.38893 2.07867Q-1.28681 2.14691 -1.17849 2.2048Q-1.07018 2.2627 -0.956709 2.3097Q-0.84324 2.3567 -0.725712 2.39235Q-0.608183 2.428 -0.487726 2.45196Q-0.367269 2.47592 -0.245043 2.48796Q-0.122817 2.5 0 2.5L102.801 2.5Q102.924 2.5 103.046 2.48796Q103.168 2.47592 103.288 2.45196Q103.409 2.428 103.526 2.39235Q103.644 2.3567 103.757 2.3097Q103.871 2.2627 103.979 2.2048Q104.088 2.14691 104.19 2.07867Q104.292 2.01044 104.387 1.93253Q104.482 1.85461 104.569 1.76777Q104.655 1.68092 104.733 1.58598Q104.811 1.49104 104.879 1.38893Q104.948 1.28681 105.006 1.17849Q105.063 1.07018 105.11 0.956709Q105.157 0.84324 105.193 0.725712Q105.229 0.608183 105.253 0.487726Q105.277 0.367269 105.289 0.245043Q105.301 0.122817 105.301 0Z" stroke-dasharray="" stroke-linecap="round" stroke-linejoin="miter" stroke-width="5" shape-rendering="geometricPrecision" fill="url(#stroke-fill-aZ0Z-3o-aZ0Z-3p)" transform="matrix(-0.6031082748717468 0.7976593312819863 -0.7976593312819863 -0.6031082748717468 180 51)" fill-rule="evenodd"></path>  <defs><linearGradient id="stroke-fill-aZ0Z-3g-aZ0Z-3h" x1="3.8" y1="0" x2="-6.87" y2="0"><stop offset="0.140625" stop-color="#3E39CE" stop-opacity="1"></stop><stop offset="0.48125" stop-color="#D53333" stop-opacity="1"></stop></linearGradient></defs><path d="M85.1378 0Q85.1378 -0.122817 85.1257 -0.245043Q85.1137 -0.367269 85.0897 -0.487726Q85.0658 -0.608183 85.0301 -0.725712Q84.9945 -0.84324 84.9474 -0.956709Q84.9005 -1.07018 84.8426 -1.17849Q84.7847 -1.28681 84.7164 -1.38893Q84.6482 -1.49104 84.5703 -1.58598Q84.4924 -1.68092 84.4055 -1.76777Q84.3187 -1.85461 84.2237 -1.93253Q84.1288 -2.01044 84.0267 -2.07867Q83.9246 -2.14691 83.8163 -2.2048Q83.7079 -2.2627 83.5945 -2.3097Q83.481 -2.3567 83.3635 -2.39235Q83.2459 -2.428 83.1255 -2.45196Q83.005 -2.47592 82.8828 -2.48796Q82.7606 -2.5 82.6378 -2.5L0 -2.5Q-0.122817 -2.5 -0.245043 -2.48796Q-0.367269 -2.47592 -0.487726 -2.45196Q-0.608183 -2.428 -0.725712 -2.39235Q-0.84324 -2.3567 -0.956709 -2.3097Q-1.07018 -2.2627 -1.17849 -2.2048Q-1.28681 -2.14691 -1.38893 -2.07867Q-1.49104 -2.01044 -1.58598 -1.93253Q-1.68092 -1.85461 -1.76777 -1.76777Q-1.85461 -1.68092 -1.93253 -1.58598Q-2.01044 -1.49104 -2.07867 -1.38893Q-2.14691 -1.28681 -2.2048 -1.17849Q-2.2627 -1.07018 -2.3097 -0.956709Q-2.3567 -0.84324 -2.39235 -0.725712Q-2.428 -0.608183 -2.45196 -0.487726Q-2.47592 -0.367269 -2.48796 -0.245043Q-2.5 -0.122817 -2.5 0Q-2.5 0.122817 -2.48796 0.245043Q-2.47592 0.367269 -2.45196 0.487726Q-2.428 0.608183 -2.39235 0.725712Q-2.3567 0.84324 -2.3097 0.956709Q-2.2627 1.07018 -2.2048 1.17849Q-2.14691 1.28681 -2.07867 1.38893Q-2.01044 1.49104 -1.93253 1.58598Q-1.85461 1.68092 -1.76777 1.76777Q-1.68092 1.85461 -1.58598 1.93253Q-1.49104 2.01044 -1.38893 2.07867Q-1.28681 2.14691 -1.17849 2.2048Q-1.07018 2.2627 -0.956709 2.3097Q-0.84324 2.3567 -0.725712 2.39235Q-0.608183 2.428 -0.487726 2.45196Q-0.367269 2.47592 -0.245043 2.48796Q-0.122817 2.5 0 2.5L82.6378 2.5Q82.7606 2.5 82.8828 2.48796Q83.005 2.47592 83.1255 2.45196Q83.2459 2.428 83.3635 2.39235Q83.481 2.3567 83.5945 2.3097Q83.7079 2.2627 83.8163 2.2048Q83.9246 2.14691 84.0267 2.07867Q84.1288 2.01044 84.2237 1.93253Q84.3187 1.85461 84.4055 1.76777Q84.4924 1.68092 84.5703 1.58598Q84.6482 1.49104 84.7164 1.38893Q84.7847 1.28681 84.8426 1.17849Q84.9005 1.07018 84.9474 0.956709Q84.9945 0.84324 85.0301 0.725712Q85.0658 0.608183 85.0897 0.487726Q85.1137 0.367269 85.1257 0.245043Q85.1378 0.122817 85.1378 0Z" stroke-dasharray="" stroke-linecap="round" stroke-linejoin="miter" stroke-width="5" shape-rendering="geometricPrecision" fill="url(#stroke-fill-aZ0Z-3g-aZ0Z-3h)" transform="matrix(0.9317773919853205 0.3630301527215534 -0.3630301527215534 0.9317773919853205 91.00000000000006 90)" fill-rule="evenodd"></path>  <defs><linearGradient id="stroke-fill-aZ0Z-41-aZ0Z-42" x1="3.8" y1="0" x2="-6.87" y2="0"><stop offset="0.140625" stop-color="#9ECB9F" stop-opacity="1"></stop><stop offset="0.48125" stop-color="#337AD6" stop-opacity="1"></stop></linearGradient></defs><path d="M161.88 0Q161.88 -0.122817 161.868 -0.245043Q161.856 -0.367269 161.832 -0.487726Q161.808 -0.608183 161.772 -0.725712Q161.737 -0.84324 161.69 -0.956709Q161.643 -1.07018 161.585 -1.17849Q161.527 -1.28681 161.459 -1.38893Q161.39 -1.49104 161.313 -1.58598Q161.235 -1.68092 161.148 -1.76777Q161.061 -1.85461 160.966 -1.93253Q160.871 -2.01044 160.769 -2.07867Q160.667 -2.14691 160.559 -2.2048Q160.45 -2.2627 160.337 -2.3097Q160.223 -2.3567 160.106 -2.39235Q159.988 -2.428 159.868 -2.45196Q159.747 -2.47592 159.625 -2.48796Q159.503 -2.5 159.38 -2.5L0 -2.5Q-0.122817 -2.5 -0.245043 -2.48796Q-0.367269 -2.47592 -0.487726 -2.45196Q-0.608183 -2.428 -0.725712 -2.39235Q-0.84324 -2.3567 -0.956709 -2.3097Q-1.07018 -2.2627 -1.17849 -2.2048Q-1.28681 -2.14691 -1.38893 -2.07867Q-1.49104 -2.01044 -1.58598 -1.93253Q-1.68092 -1.85461 -1.76777 -1.76777Q-1.85461 -1.68092 -1.93253 -1.58598Q-2.01044 -1.49104 -2.07867 -1.38893Q-2.14691 -1.28681 -2.2048 -1.17849Q-2.2627 -1.07018 -2.3097 -0.956709Q-2.3567 -0.84324 -2.39235 -0.725712Q-2.428 -0.608183 -2.45196 -0.487726Q-2.47592 -0.367269 -2.48796 -0.245043Q-2.5 -0.122817 -2.5 0Q-2.5 0.122817 -2.48796 0.245043Q-2.47592 0.367269 -2.45196 0.487726Q-2.428 0.608183 -2.39235 0.725712Q-2.3567 0.84324 -2.3097 0.956709Q-2.2627 1.07018 -2.2048 1.17849Q-2.14691 1.28681 -2.07867 1.38893Q-2.01044 1.49104 -1.93253 1.58598Q-1.85461 1.68092 -1.76777 1.76777Q-1.68092 1.85461 -1.58598 1.93253Q-1.49104 2.01044 -1.38893 2.07867Q-1.28681 2.14691 -1.17849 2.2048Q-1.07018 2.2627 -0.956709 2.3097Q-0.84324 2.3567 -0.725712 2.39235Q-0.608183 2.428 -0.487726 2.45196Q-0.367269 2.47592 -0.245043 2.48796Q-0.122817 2.5 0 2.5L159.38 2.5Q159.503 2.5 159.625 2.48796Q159.747 2.47592 159.868 2.45196Q159.988 2.428 160.106 2.39235Q160.223 2.3567 160.337 2.3097Q160.45 2.2627 160.559 2.2048Q160.667 2.14691 160.769 2.07867Q160.871 2.01044 160.966 1.93253Q161.061 1.85461 161.148 1.76777Q161.235 1.68092 161.313 1.58598Q161.39 1.49104 161.459 1.38893Q161.527 1.28681 161.585 1.17849Q161.643 1.07018 161.69 0.956709Q161.737 0.84324 161.772 0.725712Q161.808 0.608183 161.832 0.487726Q161.856 0.367269 161.868 0.245043Q161.88 0.122817 161.88 0Z" stroke-dasharray="" stroke-linecap="round" stroke-linejoin="miter" stroke-width="5" shape-rendering="geometricPrecision" fill="url(#stroke-fill-aZ0Z-41-aZ0Z-42)" transform="matrix(0.947420966454794 0.31998986284234715 -0.31998986284234715 0.947420966454794 110 150)" fill-rule="evenodd"></path>  <defs><linearGradient id="stroke-fill-aZ0Z-3i-aZ0Z-3j" x1="3.8" y1="0" x2="-6.87" y2="0"><stop offset="0.140625" stop-color="#3E39CE" stop-opacity="1"></stop><stop offset="0.48125" stop-color="#D53333" stop-opacity="1"></stop></linearGradient></defs><path d="M85.9086 0Q85.9086 -0.122817 85.8966 -0.245043Q85.8846 -0.367269 85.8606 -0.487726Q85.8366 -0.608183 85.801 -0.725712Q85.7653 -0.84324 85.7183 -0.956709Q85.6713 -1.07018 85.6134 -1.17849Q85.5555 -1.28681 85.4873 -1.38893Q85.4191 -1.49104 85.3412 -1.58598Q85.2632 -1.68092 85.1764 -1.76777Q85.0895 -1.85461 84.9946 -1.93253Q84.8997 -2.01044 84.7975 -2.07867Q84.6954 -2.14691 84.5871 -2.2048Q84.4788 -2.2627 84.3653 -2.3097Q84.2519 -2.3567 84.1343 -2.39235Q84.0168 -2.428 83.8963 -2.45196Q83.7759 -2.47592 83.6537 -2.48796Q83.5314 -2.5 83.4086 -2.5L0 -2.5Q-0.122817 -2.5 -0.245043 -2.48796Q-0.367269 -2.47592 -0.487726 -2.45196Q-0.608183 -2.428 -0.725712 -2.39235Q-0.84324 -2.3567 -0.956709 -2.3097Q-1.07018 -2.2627 -1.17849 -2.2048Q-1.28681 -2.14691 -1.38893 -2.07867Q-1.49104 -2.01044 -1.58598 -1.93253Q-1.68092 -1.85461 -1.76777 -1.76777Q-1.85461 -1.68092 -1.93253 -1.58598Q-2.01044 -1.49104 -2.07867 -1.38893Q-2.14691 -1.28681 -2.2048 -1.17849Q-2.2627 -1.07018 -2.3097 -0.956709Q-2.3567 -0.84324 -2.39235 -0.725712Q-2.428 -0.608183 -2.45196 -0.487726Q-2.47592 -0.367269 -2.48796 -0.245043Q-2.5 -0.122817 -2.5 0Q-2.5 0.122817 -2.48796 0.245043Q-2.47592 0.367269 -2.45196 0.487726Q-2.428 0.608183 -2.39235 0.725712Q-2.3567 0.84324 -2.3097 0.956709Q-2.2627 1.07018 -2.2048 1.17849Q-2.14691 1.28681 -2.07867 1.38893Q-2.01044 1.49104 -1.93253 1.58598Q-1.85461 1.68092 -1.76777 1.76777Q-1.68092 1.85461 -1.58598 1.93253Q-1.49104 2.01044 -1.38893 2.07867Q-1.28681 2.14691 -1.17849 2.2048Q-1.07018 2.2627 -0.956709 2.3097Q-0.84324 2.3567 -0.725712 2.39235Q-0.608183 2.428 -0.487726 2.45196Q-0.367269 2.47592 -0.245043 2.48796Q-0.122817 2.5 0 2.5L83.4086 2.5Q83.5314 2.5 83.6537 2.48796Q83.7759 2.47592 83.8963 2.45196Q84.0168 2.428 84.1343 2.39235Q84.2519 2.3567 84.3653 2.3097Q84.4788 2.2627 84.5871 2.2048Q84.6954 2.14691 84.7975 2.07867Q84.8997 2.01044 84.9946 1.93253Q85.0895 1.85461 85.1764 1.76777Q85.2632 1.68092 85.3412 1.58598Q85.4191 1.49104 85.4873 1.38893Q85.5555 1.28681 85.6134 1.17849Q85.6713 1.07018 85.7183 0.956709Q85.7653 0.84324 85.801 0.725712Q85.8366 0.608183 85.8606 0.487726Q85.8846 0.367269 85.8966 0.245043Q85.9086 0.122817 85.9086 0Z" stroke-dasharray="" stroke-linecap="round" stroke-linejoin="miter" stroke-width="5" shape-rendering="geometricPrecision" fill="url(#stroke-fill-aZ0Z-3i-aZ0Z-3j)" transform="matrix(0.6114475010757645 -0.7912850013921677 0.7912850013921677 0.6114475010757645 125.00000000000006 208)" fill-rule="evenodd"></path>  <defs><linearGradient id="stroke-fill-aZ0Z-3k-aZ0Z-3l" x1="3.8" y1="0" x2="-6.87" y2="0"><stop offset="0.140625" stop-color="#3E39CE" stop-opacity="1"></stop><stop offset="0.48125" stop-color="#D53333" stop-opacity="1"></stop></linearGradient></defs><path d="M82.425 0Q82.425 -0.122817 82.4129 -0.245043Q82.4009 -0.367269 82.3769 -0.487726Q82.353 -0.608183 82.3173 -0.725712Q82.2817 -0.84324 82.2347 -0.956709Q82.1877 -1.07018 82.1298 -1.17849Q82.0719 -1.28681 82.0036 -1.38893Q81.9354 -1.49104 81.8575 -1.58598Q81.7796 -1.68092 81.6927 -1.76777Q81.6059 -1.85461 81.5109 -1.93253Q81.416 -2.01044 81.3139 -2.07867Q81.2118 -2.14691 81.1035 -2.2048Q80.9951 -2.2627 80.8817 -2.3097Q80.7682 -2.3567 80.6507 -2.39235Q80.5332 -2.428 80.4127 -2.45196Q80.2922 -2.47592 80.17 -2.48796Q80.0478 -2.5 79.925 -2.5L0 -2.5Q-0.122817 -2.5 -0.245043 -2.48796Q-0.367269 -2.47592 -0.487726 -2.45196Q-0.608183 -2.428 -0.725712 -2.39235Q-0.84324 -2.3567 -0.956709 -2.3097Q-1.07018 -2.2627 -1.17849 -2.2048Q-1.28681 -2.14691 -1.38893 -2.07867Q-1.49104 -2.01044 -1.58598 -1.93253Q-1.68092 -1.85461 -1.76777 -1.76777Q-1.85461 -1.68092 -1.93253 -1.58598Q-2.01044 -1.49104 -2.07867 -1.38893Q-2.14691 -1.28681 -2.2048 -1.17849Q-2.2627 -1.07018 -2.3097 -0.956709Q-2.3567 -0.84324 -2.39235 -0.725712Q-2.428 -0.608183 -2.45196 -0.487726Q-2.47592 -0.367269 -2.48796 -0.245043Q-2.5 -0.122817 -2.5 0Q-2.5 0.122817 -2.48796 0.245043Q-2.47592 0.367269 -2.45196 0.487726Q-2.428 0.608183 -2.39235 0.725712Q-2.3567 0.84324 -2.3097 0.956709Q-2.2627 1.07018 -2.2048 1.17849Q-2.14691 1.28681 -2.07867 1.38893Q-2.01044 1.49104 -1.93253 1.58598Q-1.85461 1.68092 -1.76777 1.76777Q-1.68092 1.85461 -1.58598 1.93253Q-1.49104 2.01044 -1.38893 2.07867Q-1.28681 2.14691 -1.17849 2.2048Q-1.07018 2.2627 -0.956709 2.3097Q-0.84324 2.3567 -0.725712 2.39235Q-0.608183 2.428 -0.487726 2.45196Q-0.367269 2.47592 -0.245043 2.48796Q-0.122817 2.5 0 2.5L79.925 2.5Q80.0478 2.5 80.17 2.48796Q80.2922 2.47592 80.4127 2.45196Q80.5332 2.428 80.6507 2.39235Q80.7682 2.3567 80.8817 2.3097Q80.9951 2.2627 81.1035 2.2048Q81.2118 2.14691 81.3139 2.07867Q81.416 2.01044 81.5109 1.93253Q81.6059 1.85461 81.6927 1.76777Q81.7796 1.68092 81.8575 1.58598Q81.9354 1.49104 82.0036 1.38893Q82.0719 1.28681 82.1298 1.17849Q82.1877 1.07018 82.2347 0.956709Q82.2817 0.84324 82.3173 0.725712Q82.353 0.608183 82.3769 0.487726Q82.4009 0.367269 82.4129 0.245043Q82.425 0.122817 82.425 0Z" stroke-dasharray="" stroke-linecap="round" stroke-linejoin="miter" stroke-width="5" shape-rendering="geometricPrecision" fill="url(#stroke-fill-aZ0Z-3k-aZ0Z-3l)" transform="matrix(-0.8507979973592922 0.5254928807219161 -0.5254928807219161 -0.8507979973592922 289 79.99999999999994)" fill-rule="evenodd"></path>  <defs><linearGradient id="stroke-fill-aZ0Z-3q-aZ0Z-3r" x1="3.8" y1="0" x2="-6.87" y2="0"><stop offset="0.140625" stop-color="#9ECB9F" stop-opacity="1"></stop><stop offset="0.48125" stop-color="#337AD6" stop-opacity="1"></stop></linearGradient></defs><path d="M137.885 0Q137.885 -0.122817 137.873 -0.245043Q137.861 -0.367269 137.837 -0.487726Q137.813 -0.608183 137.777 -0.725712Q137.741 -0.84324 137.694 -0.956709Q137.647 -1.07018 137.589 -1.17849Q137.532 -1.28681 137.463 -1.38893Q137.395 -1.49104 137.317 -1.58598Q137.239 -1.68092 137.152 -1.76777Q137.066 -1.85461 136.971 -1.93253Q136.876 -2.01044 136.774 -2.07867Q136.671 -2.14691 136.563 -2.2048Q136.455 -2.2627 136.341 -2.3097Q136.228 -2.3567 136.11 -2.39235Q135.993 -2.428 135.872 -2.45196Q135.752 -2.47592 135.63 -2.48796Q135.507 -2.5 135.385 -2.5L0 -2.5Q-0.122817 -2.5 -0.245043 -2.48796Q-0.367269 -2.47592 -0.487726 -2.45196Q-0.608183 -2.428 -0.725712 -2.39235Q-0.84324 -2.3567 -0.956709 -2.3097Q-1.07018 -2.2627 -1.17849 -2.2048Q-1.28681 -2.14691 -1.38893 -2.07867Q-1.49104 -2.01044 -1.58598 -1.93253Q-1.68092 -1.85461 -1.76777 -1.76777Q-1.85461 -1.68092 -1.93253 -1.58598Q-2.01044 -1.49104 -2.07867 -1.38893Q-2.14691 -1.28681 -2.2048 -1.17849Q-2.2627 -1.07018 -2.3097 -0.956709Q-2.3567 -0.84324 -2.39235 -0.725712Q-2.428 -0.608183 -2.45196 -0.487726Q-2.47592 -0.367269 -2.48796 -0.245043Q-2.5 -0.122817 -2.5 0Q-2.5 0.122817 -2.48796 0.245043Q-2.47592 0.367269 -2.45196 0.487726Q-2.428 0.608183 -2.39235 0.725712Q-2.3567 0.84324 -2.3097 0.956709Q-2.2627 1.07018 -2.2048 1.17849Q-2.14691 1.28681 -2.07867 1.38893Q-2.01044 1.49104 -1.93253 1.58598Q-1.85461 1.68092 -1.76777 1.76777Q-1.68092 1.85461 -1.58598 1.93253Q-1.49104 2.01044 -1.38893 2.07867Q-1.28681 2.14691 -1.17849 2.2048Q-1.07018 2.2627 -0.956709 2.3097Q-0.84324 2.3567 -0.725712 2.39235Q-0.608183 2.428 -0.487726 2.45196Q-0.367269 2.47592 -0.245043 2.48796Q-0.122817 2.5 0 2.5L135.385 2.5Q135.507 2.5 135.63 2.48796Q135.752 2.47592 135.872 2.45196Q135.993 2.428 136.11 2.39235Q136.228 2.3567 136.341 2.3097Q136.455 2.2627 136.563 2.2048Q136.671 2.14691 136.774 2.07867Q136.876 2.01044 136.971 1.93253Q137.066 1.85461 137.152 1.76777Q137.239 1.68092 137.317 1.58598Q137.395 1.49104 137.463 1.38893Q137.532 1.28681 137.589 1.17849Q137.647 1.07018 137.694 0.956709Q137.741 0.84324 137.777 0.725712Q137.813 0.608183 137.837 0.487726Q137.861 0.367269 137.873 0.245043Q137.885 0.122817 137.885 0Z" stroke-dasharray="" stroke-linecap="round" stroke-linejoin="miter" stroke-width="5" shape-rendering="geometricPrecision" fill="url(#stroke-fill-aZ0Z-3q-aZ0Z-3r)" transform="matrix(0.3840908470927789 0.9232953055114878 -0.9232953055114878 0.3840908470927789 216 54)" fill-rule="evenodd"></path> <defs><radialGradient id="fill-aZ0Z-f-cNOQ-2" fx="0.5" fy="0" cx="0.5" cy="0" r="1.0663548929070208" gradientTransform="translate(0.5, 0), scale(1,1), rotate(90), scale(1, 1.1454029460186697), translate(-0.5, 0)"><stop offset="0.20322240847017412" stop-color="#8D55FF" stop-opacity="1"></stop><stop offset="0.4859499409484994" stop-color="#9770B8" stop-opacity="1"></stop><stop offset="0.8200824793319748" stop-color="#B97171" stop-opacity="1"></stop><stop offset="1" stop-color="#FF5A5A" stop-opacity="1"></stop></radialGradient></defs><path d="M35 70C54.33 70 70 54.33 70 35C70 15.67 54.33 0 35 0C15.67 0 0 15.67 0 35C0 54.33 15.67 70 35 70Z" shape-rendering="geometricPrecision" fill="url(#fill-aZ0Z-f-cNOQ-2)" style="fill-rule:evenodd" transform="matrix(1 0 0 1 29 51.19999999999999)"></path><defs><radialGradient id="fill-aZ0Z-3a-aZ0Z-3b" fx="0.5" fy="0" cx="0.5" cy="0" r="1.0663548929070208" gradientTransform="translate(0.5, 0), scale(1,1), rotate(90), scale(1, 1.1454029460186697), translate(-0.5, 0)"><stop offset="0.20322240847017412" stop-color="#8D55FF" stop-opacity="1"></stop><stop offset="0.4859499409484994" stop-color="#9770B8" stop-opacity="1"></stop><stop offset="0.8200824793319748" stop-color="#B97171" stop-opacity="1"></stop><stop offset="1" stop-color="#FF5A5A" stop-opacity="1"></stop></radialGradient></defs><path d="M34 68C52.7777 68 68 52.7777 68 34C68 15.2223 52.7777 0 34 0C15.2223 0 0 15.2223 0 34C0 52.7777 15.2223 68 34 68Z" shape-rendering="geometricPrecision" fill="url(#fill-aZ0Z-3a-aZ0Z-3b)" style="fill-rule:evenodd" transform="matrix(1 0 0 1 268 36)"></path><defs><radialGradient id="fill-aZ0Z-37-aZ0Z-38" fx="0.5" fy="0" cx="0.5" cy="0" r="1.0663548929070208" gradientTransform="translate(0.5, 0), scale(1,1), rotate(90), scale(1, 1.1454029460186697), translate(-0.5, 0)"><stop offset="0.20322240847017412" stop-color="#8D55FF" stop-opacity="1"></stop><stop offset="0.4859499409484994" stop-color="#9770B8" stop-opacity="1"></stop><stop offset="0.8200824793319748" stop-color="#B97171" stop-opacity="1"></stop><stop offset="1" stop-color="#FF5A5A" stop-opacity="1"></stop></radialGradient></defs><path d="M35 70C54.33 70 70 54.33 70 35C70 15.67 54.33 0 35 0C15.67 0 0 15.67 0 35C0 54.33 15.67 70 35 70Z" shape-rendering="geometricPrecision" fill="url(#fill-aZ0Z-37-aZ0Z-38)" style="fill-rule:evenodd" transform="matrix(1 0 0 1 60 181)"></path><defs><radialGradient id="fill-aZ0Z-3d-aZ0Z-3e" fx="0.5" fy="0" cx="0.5" cy="0" r="1.0663548929070208" gradientTransform="translate(0.5, 0), scale(1,1), rotate(90), scale(1, 1.1454029460186697), translate(-0.5, 0)"><stop offset="0.20322240847017412" stop-color="#8D55FF" stop-opacity="1"></stop><stop offset="0.4859499409484994" stop-color="#9770B8" stop-opacity="1"></stop><stop offset="0.8200824793319748" stop-color="#B97171" stop-opacity="1"></stop><stop offset="1" stop-color="#FF5A5A" stop-opacity="1"></stop></radialGradient></defs><path d="M35 70C54.33 70 70 54.33 70 35C70 15.67 54.33 0 35 0C15.67 0 0 15.67 0 35C0 54.33 15.67 70 35 70Z" shape-rendering="geometricPrecision" fill="url(#fill-aZ0Z-3d-aZ0Z-3e)" style="fill-rule:evenodd" transform="matrix(1 0 0 1 158 96)"></path><defs><radialGradient id="fill-aZ0Z-q-aZ0Z-r" fx="0.5" fy="0" cx="0.5" cy="0" r="1" gradientTransform="translate(0.5, 0), scale(1,1), rotate(90), scale(1, 1.237524825206275), translate(-0.5, 0)"><stop offset="0" stop-color="#66C4FF" stop-opacity="1"></stop><stop offset="0.6293478918395744" stop-color="#84BA91" stop-opacity="1"></stop><stop offset="1" stop-color="#334F4C" stop-opacity="1"></stop></radialGradient></defs><path d="M30 60C46.5685 60 60 46.5685 60 30C60 13.4315 46.5685 0 30 0C13.4315 0 0 13.4315 0 30C0 46.5685 13.4315 60 30 60Z" shape-rendering="geometricPrecision" fill="url(#fill-aZ0Z-q-aZ0Z-r)" style="fill-rule:evenodd" transform="matrix(1 0 0 1 171.00000363070865 5)"></path><defs><radialGradient id="fill-aZ0Z-3v-aZ0Z-3w" fx="0.5" fy="0" cx="0.5" cy="0" r="1" gradientTransform="translate(0.5, 0), scale(1,1), rotate(90), scale(1, 1.237524825206275), translate(-0.5, 0)"><stop offset="0" stop-color="#66C4FF" stop-opacity="1"></stop><stop offset="0.6293478918395744" stop-color="#84BA91" stop-opacity="1"></stop><stop offset="1" stop-color="#334F4C" stop-opacity="1"></stop></radialGradient></defs><path d="M35 70C54.33 70 70 54.33 70 35C70 15.67 54.33 0 35 0C15.67 0 0 15.67 0 35C0 54.33 15.67 70 35 70Z" shape-rendering="geometricPrecision" fill="url(#fill-aZ0Z-3v-aZ0Z-3w)" style="fill-rule:evenodd" transform="matrix(1 0 0 1 243 154)"></path><defs><radialGradient id="fill-aZ0Z-3y-aZ0Z-3z" fx="0.5" fy="0" cx="0.5" cy="0" r="1" gradientTransform="translate(0.5, 0), scale(1,1), rotate(90), scale(1, 1.237524825206275), translate(-0.5, 0)"><stop offset="0" stop-color="#66C4FF" stop-opacity="1"></stop><stop offset="0.6293478918395744" stop-color="#84BA91" stop-opacity="1"></stop><stop offset="1" stop-color="#334F4C" stop-opacity="1"></stop></radialGradient></defs><path d="M24 48C37.2548 48 48 37.2548 48 24C48 10.7452 37.2548 0 24 0C10.7452 0 0 10.7452 0 24C0 37.2548 10.7452 48 24 48Z" shape-rendering="geometricPrecision" fill="url(#fill-aZ0Z-3y-aZ0Z-3z)" style="fill-rule:evenodd" transform="matrix(1 0 0 1 82 123)"></path> <path d="M29 0Q29 -0.122743 28.994 -0.245338Q28.988 -0.367934 28.9759 -0.490086Q28.9639 -0.612238 28.9459 -0.733652Q28.9279 -0.855067 28.9039 -0.975452Q28.88 -1.09584 28.8502 -1.2149Q28.8203 -1.33397 28.7847 -1.45142Q28.7491 -1.56888 28.7077 -1.68445Q28.6664 -1.80002 28.6194 -1.91342Q28.5724 -2.02682 28.5199 -2.13778Q28.4675 -2.24873 28.4096 -2.35698Q28.3517 -2.46523 28.2886 -2.57051Q28.2255 -2.67579 28.1573 -2.77785Q28.0892 -2.87991 28.016 -2.9785Q27.9429 -3.07708 27.8651 -3.17197Q27.7872 -3.26685 27.7048 -3.35779Q27.6223 -3.44874 27.5355 -3.53553Q27.4487 -3.62233 27.3578 -3.70476Q27.2668 -3.78718 27.172 -3.86505Q27.0771 -3.94292 26.9785 -4.01604Q26.8799 -4.08916 26.7778 -4.15735Q26.6758 -4.22554 26.5705 -4.28864Q26.4652 -4.35175 26.357 -4.40961Q26.2487 -4.46747 26.1378 -4.51995Q26.0268 -4.57243 25.9134 -4.6194Q25.8 -4.66637 25.6844 -4.70772Q25.5689 -4.74907 25.4514 -4.7847Q25.334 -4.82033 25.2149 -4.85016Q25.0958 -4.87998 24.9755 -4.90393Q24.8551 -4.92787 24.7337 -4.94588Q24.6122 -4.96389 24.4901 -4.97592Q24.3679 -4.98795 24.2453 -4.99398Q24.1227 -5 24 -5L0 -5Q-0.122743 -5 -0.245338 -4.99398Q-0.367934 -4.98795 -0.490086 -4.97592Q-0.612238 -4.96389 -0.733652 -4.94588Q-0.855067 -4.92787 -0.975452 -4.90393Q-1.09584 -4.87998 -1.2149 -4.85016Q-1.33397 -4.82033 -1.45142 -4.7847Q-1.56888 -4.74907 -1.68445 -4.70772Q-1.80002 -4.66637 -1.91342 -4.6194Q-2.02682 -4.57243 -2.13778 -4.51995Q-2.24873 -4.46747 -2.35698 -4.40961Q-2.46523 -4.35175 -2.57051 -4.28864Q-2.67579 -4.22554 -2.77785 -4.15735Q-2.87991 -4.08916 -2.9785 -4.01604Q-3.07708 -3.94292 -3.17197 -3.86505Q-3.26685 -3.78719 -3.35779 -3.70476Q-3.44874 -3.62233 -3.53553 -3.53553Q-3.62233 -3.44874 -3.70476 -3.35779Q-3.78718 -3.26685 -3.86505 -3.17197Q-3.94292 -3.07708 -4.01604 -2.9785Q-4.08916 -2.87991 -4.15735 -2.77785Q-4.22554 -2.67579 -4.28864 -2.57051Q-4.35175 -2.46523 -4.40961 -2.35698Q-4.46747 -2.24873 -4.51995 -2.13778Q-4.57243 -2.02682 -4.6194 -1.91342Q-4.66637 -1.80002 -4.70772 -1.68445Q-4.74907 -1.56888 -4.7847 -1.45142Q-4.82033 -1.33397 -4.85016 -1.2149Q-4.87998 -1.09584 -4.90393 -0.975452Q-4.92787 -0.855067 -4.94588 -0.733652Q-4.96389 -0.612238 -4.97592 -0.490086Q-4.98796 -0.367934 -4.99398 -0.245338Q-5 -0.122743 -5 0Q-5 0.122743 -4.99398 0.245338Q-4.98796 0.367934 -4.97592 0.490086Q-4.96389 0.612238 -4.94588 0.733652Q-4.92787 0.855067 -4.90393 0.975452Q-4.87998 1.09584 -4.85016 1.2149Q-4.82033 1.33397 -4.7847 1.45142Q-4.74907 1.56888 -4.70772 1.68445Q-4.66637 1.80002 -4.6194 1.91342Q-4.57243 2.02682 -4.51995 2.13778Q-4.46747 2.24873 -4.40961 2.35698Q-4.35175 2.46523 -4.28864 2.57051Q-4.22554 2.67579 -4.15735 2.77785Q-4.08916 2.87991 -4.01604 2.9785Q-3.94292 3.07708 -3.86505 3.17197Q-3.78719 3.26685 -3.70476 3.35779Q-3.62233 3.44874 -3.53553 3.53553Q-3.44874 3.62233 -3.35779 3.70476Q-3.26685 3.78718 -3.17197 3.86505Q-3.07708 3.94292 -2.9785 4.01604Q-2.87991 4.08916 -2.77785 4.15735Q-2.67579 4.22554 -2.57051 4.28864Q-2.46523 4.35175 -2.35698 4.40961Q-2.24873 4.46747 -2.13778 4.51995Q-2.02682 4.57243 -1.91342 4.6194Q-1.80002 4.66637 -1.68445 4.70772Q-1.56888 4.74907 -1.45142 4.7847Q-1.33397 4.82033 -1.2149 4.85016Q-1.09584 4.87998 -0.975452 4.90393Q-0.855067 4.92787 -0.733652 4.94588Q-0.612238 4.96389 -0.490086 4.97592Q-0.367934 4.98795 -0.245338 4.99398Q-0.122743 5 0 5L24 5Q24.1227 5 24.2453 4.99398Q24.3679 4.98795 24.4901 4.97592Q24.6122 4.96389 24.7337 4.94588Q24.8551 4.92787 24.9755 4.90393Q25.0958 4.87998 25.2149 4.85016Q25.334 4.82033 25.4514 4.7847Q25.5689 4.74907 25.6844 4.70772Q25.8 4.66637 25.9134 4.6194Q26.0268 4.57243 26.1378 4.51995Q26.2487 4.46747 26.357 4.40961Q26.4652 4.35175 26.5705 4.28864Q26.6758 4.22554 26.7778 4.15735Q26.8799 4.08916 26.9785 4.01604Q27.0771 3.94292 27.172 3.86505Q27.2668 3.78719 27.3578 3.70476Q27.4487 3.62233 27.5355 3.53553Q27.6223 3.44874 27.7048 3.35779Q27.7872 3.26685 27.8651 3.17197Q27.9429 3.07708 28.016 2.9785Q28.0892 2.87991 28.1573 2.77785Q28.2255 2.67579 28.2886 2.57051Q28.3517 2.46523 28.4096 2.35698Q28.4675 2.24873 28.5199 2.13778Q28.5724 2.02682 28.6194 1.91342Q28.6664 1.80002 28.7077 1.68445Q28.7491 1.56888 28.7847 1.45142Q28.8203 1.33397 28.8502 1.2149Q28.88 1.09584 28.9039 0.975452Q28.9279 0.855067 28.9459 0.733652Q28.9639 0.612238 28.9759 0.490086Q28.988 0.367934 28.994 0.245338Q29 0.122743 29 0Z" stroke-dasharray="" stroke-linecap="round" stroke-linejoin="miter" stroke-width="10" shape-rendering="geometricPrecision" fill="#A9D8FF" transform="matrix(1 0 0 1 5 5)" fill-rule="evenodd"></path>  <path d="M251 0Q251 -0.122743 250.994 -0.245338Q250.988 -0.367934 250.976 -0.490086Q250.964 -0.612238 250.946 -0.733652Q250.928 -0.855067 250.904 -0.975452Q250.88 -1.09584 250.85 -1.2149Q250.82 -1.33397 250.785 -1.45142Q250.749 -1.56888 250.708 -1.68445Q250.666 -1.80002 250.619 -1.91342Q250.572 -2.02682 250.52 -2.13778Q250.467 -2.24873 250.41 -2.35698Q250.352 -2.46523 250.289 -2.57051Q250.226 -2.67579 250.157 -2.77785Q250.089 -2.87991 250.016 -2.9785Q249.943 -3.07708 249.865 -3.17197Q249.787 -3.26685 249.705 -3.35779Q249.622 -3.44874 249.536 -3.53553Q249.449 -3.62233 249.358 -3.70476Q249.267 -3.78718 249.172 -3.86505Q249.077 -3.94292 248.978 -4.01604Q248.88 -4.08916 248.778 -4.15735Q248.676 -4.22554 248.57 -4.28864Q248.465 -4.35175 248.357 -4.40961Q248.249 -4.46747 248.138 -4.51995Q248.027 -4.57243 247.913 -4.6194Q247.8 -4.66637 247.684 -4.70772Q247.569 -4.74907 247.451 -4.7847Q247.334 -4.82033 247.215 -4.85016Q247.096 -4.87998 246.975 -4.90393Q246.855 -4.92787 246.734 -4.94588Q246.612 -4.96389 246.49 -4.97592Q246.368 -4.98795 246.245 -4.99398Q246.123 -5 246 -5L0 -5Q-0.122743 -5 -0.245338 -4.99398Q-0.367934 -4.98795 -0.490086 -4.97592Q-0.612238 -4.96389 -0.733652 -4.94588Q-0.855067 -4.92787 -0.975452 -4.90393Q-1.09584 -4.87998 -1.2149 -4.85016Q-1.33397 -4.82033 -1.45142 -4.7847Q-1.56888 -4.74907 -1.68445 -4.70772Q-1.80002 -4.66637 -1.91342 -4.6194Q-2.02682 -4.57243 -2.13778 -4.51995Q-2.24873 -4.46747 -2.35698 -4.40961Q-2.46523 -4.35175 -2.57051 -4.28864Q-2.67579 -4.22554 -2.77785 -4.15735Q-2.87991 -4.08916 -2.9785 -4.01604Q-3.07708 -3.94292 -3.17197 -3.86505Q-3.26685 -3.78719 -3.35779 -3.70476Q-3.44874 -3.62233 -3.53553 -3.53553Q-3.62233 -3.44874 -3.70476 -3.35779Q-3.78718 -3.26685 -3.86505 -3.17197Q-3.94292 -3.07708 -4.01604 -2.9785Q-4.08916 -2.87991 -4.15735 -2.77785Q-4.22554 -2.67579 -4.28864 -2.57051Q-4.35175 -2.46523 -4.40961 -2.35698Q-4.46747 -2.24873 -4.51995 -2.13778Q-4.57243 -2.02682 -4.6194 -1.91342Q-4.66637 -1.80002 -4.70772 -1.68445Q-4.74907 -1.56888 -4.7847 -1.45142Q-4.82033 -1.33397 -4.85016 -1.2149Q-4.87998 -1.09584 -4.90393 -0.975452Q-4.92787 -0.855067 -4.94588 -0.733652Q-4.96389 -0.612238 -4.97592 -0.490086Q-4.98796 -0.367934 -4.99398 -0.245338Q-5 -0.122743 -5 0Q-5 0.122743 -4.99398 0.245338Q-4.98796 0.367934 -4.97592 0.490086Q-4.96389 0.612238 -4.94588 0.733652Q-4.92787 0.855067 -4.90393 0.975452Q-4.87998 1.09584 -4.85016 1.2149Q-4.82033 1.33397 -4.7847 1.45142Q-4.74907 1.56888 -4.70772 1.68445Q-4.66637 1.80002 -4.6194 1.91342Q-4.57243 2.02682 -4.51995 2.13778Q-4.46747 2.24873 -4.40961 2.35698Q-4.35175 2.46523 -4.28864 2.57051Q-4.22554 2.67579 -4.15735 2.77785Q-4.08916 2.87991 -4.01604 2.9785Q-3.94292 3.07708 -3.86505 3.17197Q-3.78719 3.26685 -3.70476 3.35779Q-3.62233 3.44874 -3.53553 3.53553Q-3.44874 3.62233 -3.35779 3.70476Q-3.26685 3.78718 -3.17197 3.86505Q-3.07708 3.94292 -2.9785 4.01604Q-2.87991 4.08916 -2.77785 4.15735Q-2.67579 4.22554 -2.57051 4.28864Q-2.46523 4.35175 -2.35698 4.40961Q-2.24873 4.46747 -2.13778 4.51995Q-2.02682 4.57243 -1.91342 4.6194Q-1.80002 4.66637 -1.68445 4.70772Q-1.56888 4.74907 -1.45142 4.7847Q-1.33397 4.82033 -1.2149 4.85016Q-1.09584 4.87998 -0.975452 4.90393Q-0.855067 4.92787 -0.733652 4.94588Q-0.612238 4.96389 -0.490086 4.97592Q-0.367934 4.98795 -0.245338 4.99398Q-0.122743 5 0 5L246 5Q246.123 5 246.245 4.99398Q246.368 4.98795 246.49 4.97592Q246.612 4.96389 246.734 4.94588Q246.855 4.92787 246.975 4.90393Q247.096 4.87998 247.215 4.85016Q247.334 4.82033 247.451 4.7847Q247.569 4.74907 247.684 4.70772Q247.8 4.66637 247.913 4.6194Q248.027 4.57243 248.138 4.51995Q248.249 4.46747 248.357 4.40961Q248.465 4.35175 248.57 4.28864Q248.676 4.22554 248.778 4.15735Q248.88 4.08916 248.978 4.01604Q249.077 3.94292 249.172 3.86505Q249.267 3.78719 249.358 3.70476Q249.449 3.62233 249.536 3.53553Q249.622 3.44874 249.705 3.35779Q249.787 3.26685 249.865 3.17197Q249.943 3.07708 250.016 2.9785Q250.089 2.87991 250.157 2.77785Q250.226 2.67579 250.289 2.57051Q250.352 2.46523 250.41 2.35698Q250.467 2.24873 250.52 2.13778Q250.572 2.02682 250.619 1.91342Q250.666 1.80002 250.708 1.68445Q250.749 1.56888 250.785 1.45142Q250.82 1.33397 250.85 1.2149Q250.88 1.09584 250.904 0.975452Q250.928 0.855067 250.946 0.733652Q250.964 0.612238 250.976 0.490086Q250.988 0.367934 250.994 0.245338Q251 0.122743 251 0Z" stroke-dasharray="" stroke-linecap="round" stroke-linejoin="miter" stroke-width="10" shape-rendering="geometricPrecision" fill="#A9D8FF" transform="matrix(6.123233995736766e-17 1 -1 6.123233995736766e-17 5 5)" fill-rule="evenodd"></path>  <path d="M29 0Q29 -0.122743 28.994 -0.245338Q28.988 -0.367934 28.9759 -0.490086Q28.9639 -0.612238 28.9459 -0.733652Q28.9279 -0.855067 28.9039 -0.975452Q28.88 -1.09584 28.8502 -1.2149Q28.8203 -1.33397 28.7847 -1.45142Q28.7491 -1.56888 28.7077 -1.68445Q28.6664 -1.80002 28.6194 -1.91342Q28.5724 -2.02682 28.5199 -2.13778Q28.4675 -2.24873 28.4096 -2.35698Q28.3517 -2.46523 28.2886 -2.57051Q28.2255 -2.67579 28.1573 -2.77785Q28.0892 -2.87991 28.016 -2.9785Q27.9429 -3.07708 27.8651 -3.17197Q27.7872 -3.26685 27.7048 -3.35779Q27.6223 -3.44874 27.5355 -3.53553Q27.4487 -3.62233 27.3578 -3.70476Q27.2668 -3.78718 27.172 -3.86505Q27.0771 -3.94292 26.9785 -4.01604Q26.8799 -4.08916 26.7778 -4.15735Q26.6758 -4.22554 26.5705 -4.28864Q26.4652 -4.35175 26.357 -4.40961Q26.2487 -4.46747 26.1378 -4.51995Q26.0268 -4.57243 25.9134 -4.6194Q25.8 -4.66637 25.6844 -4.70772Q25.5689 -4.74907 25.4514 -4.7847Q25.334 -4.82033 25.2149 -4.85016Q25.0958 -4.87998 24.9755 -4.90393Q24.8551 -4.92787 24.7337 -4.94588Q24.6122 -4.96389 24.4901 -4.97592Q24.3679 -4.98795 24.2453 -4.99398Q24.1227 -5 24 -5L0 -5Q-0.122743 -5 -0.245338 -4.99398Q-0.367934 -4.98795 -0.490086 -4.97592Q-0.612238 -4.96389 -0.733652 -4.94588Q-0.855067 -4.92787 -0.975452 -4.90393Q-1.09584 -4.87998 -1.2149 -4.85016Q-1.33397 -4.82033 -1.45142 -4.7847Q-1.56888 -4.74907 -1.68445 -4.70772Q-1.80002 -4.66637 -1.91342 -4.6194Q-2.02682 -4.57243 -2.13778 -4.51995Q-2.24873 -4.46747 -2.35698 -4.40961Q-2.46523 -4.35175 -2.57051 -4.28864Q-2.67579 -4.22554 -2.77785 -4.15735Q-2.87991 -4.08916 -2.9785 -4.01604Q-3.07708 -3.94292 -3.17197 -3.86505Q-3.26685 -3.78719 -3.35779 -3.70476Q-3.44874 -3.62233 -3.53553 -3.53553Q-3.62233 -3.44874 -3.70476 -3.35779Q-3.78718 -3.26685 -3.86505 -3.17197Q-3.94292 -3.07708 -4.01604 -2.9785Q-4.08916 -2.87991 -4.15735 -2.77785Q-4.22554 -2.67579 -4.28864 -2.57051Q-4.35175 -2.46523 -4.40961 -2.35698Q-4.46747 -2.24873 -4.51995 -2.13778Q-4.57243 -2.02682 -4.6194 -1.91342Q-4.66637 -1.80002 -4.70772 -1.68445Q-4.74907 -1.56888 -4.7847 -1.45142Q-4.82033 -1.33397 -4.85016 -1.2149Q-4.87998 -1.09584 -4.90393 -0.975452Q-4.92787 -0.855067 -4.94588 -0.733652Q-4.96389 -0.612238 -4.97592 -0.490086Q-4.98796 -0.367934 -4.99398 -0.245338Q-5 -0.122743 -5 0Q-5 0.122743 -4.99398 0.245338Q-4.98796 0.367934 -4.97592 0.490086Q-4.96389 0.612238 -4.94588 0.733652Q-4.92787 0.855067 -4.90393 0.975452Q-4.87998 1.09584 -4.85016 1.2149Q-4.82033 1.33397 -4.7847 1.45142Q-4.74907 1.56888 -4.70772 1.68445Q-4.66637 1.80002 -4.6194 1.91342Q-4.57243 2.02682 -4.51995 2.13778Q-4.46747 2.24873 -4.40961 2.35698Q-4.35175 2.46523 -4.28864 2.57051Q-4.22554 2.67579 -4.15735 2.77785Q-4.08916 2.87991 -4.01604 2.9785Q-3.94292 3.07708 -3.86505 3.17197Q-3.78719 3.26685 -3.70476 3.35779Q-3.62233 3.44874 -3.53553 3.53553Q-3.44874 3.62233 -3.35779 3.70476Q-3.26685 3.78718 -3.17197 3.86505Q-3.07708 3.94292 -2.9785 4.01604Q-2.87991 4.08916 -2.77785 4.15735Q-2.67579 4.22554 -2.57051 4.28864Q-2.46523 4.35175 -2.35698 4.40961Q-2.24873 4.46747 -2.13778 4.51995Q-2.02682 4.57243 -1.91342 4.6194Q-1.80002 4.66637 -1.68445 4.70772Q-1.56888 4.74907 -1.45142 4.7847Q-1.33397 4.82033 -1.2149 4.85016Q-1.09584 4.87998 -0.975452 4.90393Q-0.855067 4.92787 -0.733652 4.94588Q-0.612238 4.96389 -0.490086 4.97592Q-0.367934 4.98795 -0.245338 4.99398Q-0.122743 5 0 5L24 5Q24.1227 5 24.2453 4.99398Q24.3679 4.98795 24.4901 4.97592Q24.6122 4.96389 24.7337 4.94588Q24.8551 4.92787 24.9755 4.90393Q25.0958 4.87998 25.2149 4.85016Q25.334 4.82033 25.4514 4.7847Q25.5689 4.74907 25.6844 4.70772Q25.8 4.66637 25.9134 4.6194Q26.0268 4.57243 26.1378 4.51995Q26.2487 4.46747 26.357 4.40961Q26.4652 4.35175 26.5705 4.28864Q26.6758 4.22554 26.7778 4.15735Q26.8799 4.08916 26.9785 4.01604Q27.0771 3.94292 27.172 3.86505Q27.2668 3.78719 27.3578 3.70476Q27.4487 3.62233 27.5355 3.53553Q27.6223 3.44874 27.7048 3.35779Q27.7872 3.26685 27.8651 3.17197Q27.9429 3.07708 28.016 2.9785Q28.0892 2.87991 28.1573 2.77785Q28.2255 2.67579 28.2886 2.57051Q28.3517 2.46523 28.4096 2.35698Q28.4675 2.24873 28.5199 2.13778Q28.5724 2.02682 28.6194 1.91342Q28.6664 1.80002 28.7077 1.68445Q28.7491 1.56888 28.7847 1.45142Q28.8203 1.33397 28.8502 1.2149Q28.88 1.09584 28.9039 0.975452Q28.9279 0.855067 28.9459 0.733652Q28.9639 0.612238 28.9759 0.490086Q28.988 0.367934 28.994 0.245338Q29 0.122743 29 0Z" stroke-dasharray="" stroke-linecap="round" stroke-linejoin="miter" stroke-width="10" shape-rendering="geometricPrecision" fill="#A9D8FF" transform="matrix(-1 1.2246467991473532e-16 -1.2246467991473532e-16 -1 29 251)" fill-rule="evenodd"></path>  <path d="M29 0Q29 -0.122743 28.994 -0.245338Q28.988 -0.367934 28.9759 -0.490086Q28.9639 -0.612238 28.9459 -0.733652Q28.9279 -0.855067 28.9039 -0.975452Q28.88 -1.09584 28.8502 -1.2149Q28.8203 -1.33397 28.7847 -1.45142Q28.7491 -1.56888 28.7077 -1.68445Q28.6664 -1.80002 28.6194 -1.91342Q28.5724 -2.02682 28.5199 -2.13778Q28.4675 -2.24873 28.4096 -2.35698Q28.3517 -2.46523 28.2886 -2.57051Q28.2255 -2.67579 28.1573 -2.77785Q28.0892 -2.87991 28.016 -2.9785Q27.9429 -3.07708 27.8651 -3.17197Q27.7872 -3.26685 27.7048 -3.35779Q27.6223 -3.44874 27.5355 -3.53553Q27.4487 -3.62233 27.3578 -3.70476Q27.2668 -3.78718 27.172 -3.86505Q27.0771 -3.94292 26.9785 -4.01604Q26.8799 -4.08916 26.7778 -4.15735Q26.6758 -4.22554 26.5705 -4.28864Q26.4652 -4.35175 26.357 -4.40961Q26.2487 -4.46747 26.1378 -4.51995Q26.0268 -4.57243 25.9134 -4.6194Q25.8 -4.66637 25.6844 -4.70772Q25.5689 -4.74907 25.4514 -4.7847Q25.334 -4.82033 25.2149 -4.85016Q25.0958 -4.87998 24.9755 -4.90393Q24.8551 -4.92787 24.7337 -4.94588Q24.6122 -4.96389 24.4901 -4.97592Q24.3679 -4.98795 24.2453 -4.99398Q24.1227 -5 24 -5L0 -5Q-0.122743 -5 -0.245338 -4.99398Q-0.367934 -4.98795 -0.490086 -4.97592Q-0.612238 -4.96389 -0.733652 -4.94588Q-0.855067 -4.92787 -0.975452 -4.90393Q-1.09584 -4.87998 -1.2149 -4.85016Q-1.33397 -4.82033 -1.45142 -4.7847Q-1.56888 -4.74907 -1.68445 -4.70772Q-1.80002 -4.66637 -1.91342 -4.6194Q-2.02682 -4.57243 -2.13778 -4.51995Q-2.24873 -4.46747 -2.35698 -4.40961Q-2.46523 -4.35175 -2.57051 -4.28864Q-2.67579 -4.22554 -2.77785 -4.15735Q-2.87991 -4.08916 -2.9785 -4.01604Q-3.07708 -3.94292 -3.17197 -3.86505Q-3.26685 -3.78719 -3.35779 -3.70476Q-3.44874 -3.62233 -3.53553 -3.53553Q-3.62233 -3.44874 -3.70476 -3.35779Q-3.78718 -3.26685 -3.86505 -3.17197Q-3.94292 -3.07708 -4.01604 -2.9785Q-4.08916 -2.87991 -4.15735 -2.77785Q-4.22554 -2.67579 -4.28864 -2.57051Q-4.35175 -2.46523 -4.40961 -2.35698Q-4.46747 -2.24873 -4.51995 -2.13778Q-4.57243 -2.02682 -4.6194 -1.91342Q-4.66637 -1.80002 -4.70772 -1.68445Q-4.74907 -1.56888 -4.7847 -1.45142Q-4.82033 -1.33397 -4.85016 -1.2149Q-4.87998 -1.09584 -4.90393 -0.975452Q-4.92787 -0.855067 -4.94588 -0.733652Q-4.96389 -0.612238 -4.97592 -0.490086Q-4.98796 -0.367934 -4.99398 -0.245338Q-5 -0.122743 -5 0Q-5 0.122743 -4.99398 0.245338Q-4.98796 0.367934 -4.97592 0.490086Q-4.96389 0.612238 -4.94588 0.733652Q-4.92787 0.855067 -4.90393 0.975452Q-4.87998 1.09584 -4.85016 1.2149Q-4.82033 1.33397 -4.7847 1.45142Q-4.74907 1.56888 -4.70772 1.68445Q-4.66637 1.80002 -4.6194 1.91342Q-4.57243 2.02682 -4.51995 2.13778Q-4.46747 2.24873 -4.40961 2.35698Q-4.35175 2.46523 -4.28864 2.57051Q-4.22554 2.67579 -4.15735 2.77785Q-4.08916 2.87991 -4.01604 2.9785Q-3.94292 3.07708 -3.86505 3.17197Q-3.78719 3.26685 -3.70476 3.35779Q-3.62233 3.44874 -3.53553 3.53553Q-3.44874 3.62233 -3.35779 3.70476Q-3.26685 3.78718 -3.17197 3.86505Q-3.07708 3.94292 -2.9785 4.01604Q-2.87991 4.08916 -2.77785 4.15735Q-2.67579 4.22554 -2.57051 4.28864Q-2.46523 4.35175 -2.35698 4.40961Q-2.24873 4.46747 -2.13778 4.51995Q-2.02682 4.57243 -1.91342 4.6194Q-1.80002 4.66637 -1.68445 4.70772Q-1.56888 4.74907 -1.45142 4.7847Q-1.33397 4.82033 -1.2149 4.85016Q-1.09584 4.87998 -0.975452 4.90393Q-0.855067 4.92787 -0.733652 4.94588Q-0.612238 4.96389 -0.490086 4.97592Q-0.367934 4.98795 -0.245338 4.99398Q-0.122743 5 0 5L24 5Q24.1227 5 24.2453 4.99398Q24.3679 4.98795 24.4901 4.97592Q24.6122 4.96389 24.7337 4.94588Q24.8551 4.92787 24.9755 4.90393Q25.0958 4.87998 25.2149 4.85016Q25.334 4.82033 25.4514 4.7847Q25.5689 4.74907 25.6844 4.70772Q25.8 4.66637 25.9134 4.6194Q26.0268 4.57243 26.1378 4.51995Q26.2487 4.46747 26.357 4.40961Q26.4652 4.35175 26.5705 4.28864Q26.6758 4.22554 26.7778 4.15735Q26.8799 4.08916 26.9785 4.01604Q27.0771 3.94292 27.172 3.86505Q27.2668 3.78719 27.3578 3.70476Q27.4487 3.62233 27.5355 3.53553Q27.6223 3.44874 27.7048 3.35779Q27.7872 3.26685 27.8651 3.17197Q27.9429 3.07708 28.016 2.9785Q28.0892 2.87991 28.1573 2.77785Q28.2255 2.67579 28.2886 2.57051Q28.3517 2.46523 28.4096 2.35698Q28.4675 2.24873 28.5199 2.13778Q28.5724 2.02682 28.6194 1.91342Q28.6664 1.80002 28.7077 1.68445Q28.7491 1.56888 28.7847 1.45142Q28.8203 1.33397 28.8502 1.2149Q28.88 1.09584 28.9039 0.975452Q28.9279 0.855067 28.9459 0.733652Q28.9639 0.612238 28.9759 0.490086Q28.988 0.367934 28.994 0.245338Q29 0.122743 29 0Z" stroke-dasharray="" stroke-linecap="round" stroke-linejoin="miter" stroke-width="10" shape-rendering="geometricPrecision" fill="#A9D8FF" transform="matrix(1 0 0 -1 336 5)" fill-rule="evenodd"></path>  <path d="M251 0Q251 -0.122743 250.994 -0.245338Q250.988 -0.367934 250.976 -0.490086Q250.964 -0.612238 250.946 -0.733652Q250.928 -0.855067 250.904 -0.975452Q250.88 -1.09584 250.85 -1.2149Q250.82 -1.33397 250.785 -1.45142Q250.749 -1.56888 250.708 -1.68445Q250.666 -1.80002 250.619 -1.91342Q250.572 -2.02682 250.52 -2.13778Q250.467 -2.24873 250.41 -2.35698Q250.352 -2.46523 250.289 -2.57051Q250.226 -2.67579 250.157 -2.77785Q250.089 -2.87991 250.016 -2.9785Q249.943 -3.07708 249.865 -3.17197Q249.787 -3.26685 249.705 -3.35779Q249.622 -3.44874 249.536 -3.53553Q249.449 -3.62233 249.358 -3.70476Q249.267 -3.78718 249.172 -3.86505Q249.077 -3.94292 248.978 -4.01604Q248.88 -4.08916 248.778 -4.15735Q248.676 -4.22554 248.57 -4.28864Q248.465 -4.35175 248.357 -4.40961Q248.249 -4.46747 248.138 -4.51995Q248.027 -4.57243 247.913 -4.6194Q247.8 -4.66637 247.684 -4.70772Q247.569 -4.74907 247.451 -4.7847Q247.334 -4.82033 247.215 -4.85016Q247.096 -4.87998 246.975 -4.90393Q246.855 -4.92787 246.734 -4.94588Q246.612 -4.96389 246.49 -4.97592Q246.368 -4.98795 246.245 -4.99398Q246.123 -5 246 -5L0 -5Q-0.122743 -5 -0.245338 -4.99398Q-0.367934 -4.98795 -0.490086 -4.97592Q-0.612238 -4.96389 -0.733652 -4.94588Q-0.855067 -4.92787 -0.975452 -4.90393Q-1.09584 -4.87998 -1.2149 -4.85016Q-1.33397 -4.82033 -1.45142 -4.7847Q-1.56888 -4.74907 -1.68445 -4.70772Q-1.80002 -4.66637 -1.91342 -4.6194Q-2.02682 -4.57243 -2.13778 -4.51995Q-2.24873 -4.46747 -2.35698 -4.40961Q-2.46523 -4.35175 -2.57051 -4.28864Q-2.67579 -4.22554 -2.77785 -4.15735Q-2.87991 -4.08916 -2.9785 -4.01604Q-3.07708 -3.94292 -3.17197 -3.86505Q-3.26685 -3.78719 -3.35779 -3.70476Q-3.44874 -3.62233 -3.53553 -3.53553Q-3.62233 -3.44874 -3.70476 -3.35779Q-3.78718 -3.26685 -3.86505 -3.17197Q-3.94292 -3.07708 -4.01604 -2.9785Q-4.08916 -2.87991 -4.15735 -2.77785Q-4.22554 -2.67579 -4.28864 -2.57051Q-4.35175 -2.46523 -4.40961 -2.35698Q-4.46747 -2.24873 -4.51995 -2.13778Q-4.57243 -2.02682 -4.6194 -1.91342Q-4.66637 -1.80002 -4.70772 -1.68445Q-4.74907 -1.56888 -4.7847 -1.45142Q-4.82033 -1.33397 -4.85016 -1.2149Q-4.87998 -1.09584 -4.90393 -0.975452Q-4.92787 -0.855067 -4.94588 -0.733652Q-4.96389 -0.612238 -4.97592 -0.490086Q-4.98796 -0.367934 -4.99398 -0.245338Q-5 -0.122743 -5 0Q-5 0.122743 -4.99398 0.245338Q-4.98796 0.367934 -4.97592 0.490086Q-4.96389 0.612238 -4.94588 0.733652Q-4.92787 0.855067 -4.90393 0.975452Q-4.87998 1.09584 -4.85016 1.2149Q-4.82033 1.33397 -4.7847 1.45142Q-4.74907 1.56888 -4.70772 1.68445Q-4.66637 1.80002 -4.6194 1.91342Q-4.57243 2.02682 -4.51995 2.13778Q-4.46747 2.24873 -4.40961 2.35698Q-4.35175 2.46523 -4.28864 2.57051Q-4.22554 2.67579 -4.15735 2.77785Q-4.08916 2.87991 -4.01604 2.9785Q-3.94292 3.07708 -3.86505 3.17197Q-3.78719 3.26685 -3.70476 3.35779Q-3.62233 3.44874 -3.53553 3.53553Q-3.44874 3.62233 -3.35779 3.70476Q-3.26685 3.78718 -3.17197 3.86505Q-3.07708 3.94292 -2.9785 4.01604Q-2.87991 4.08916 -2.77785 4.15735Q-2.67579 4.22554 -2.57051 4.28864Q-2.46523 4.35175 -2.35698 4.40961Q-2.24873 4.46747 -2.13778 4.51995Q-2.02682 4.57243 -1.91342 4.6194Q-1.80002 4.66637 -1.68445 4.70772Q-1.56888 4.74907 -1.45142 4.7847Q-1.33397 4.82033 -1.2149 4.85016Q-1.09584 4.87998 -0.975452 4.90393Q-0.855067 4.92787 -0.733652 4.94588Q-0.612238 4.96389 -0.490086 4.97592Q-0.367934 4.98795 -0.245338 4.99398Q-0.122743 5 0 5L246 5Q246.123 5 246.245 4.99398Q246.368 4.98795 246.49 4.97592Q246.612 4.96389 246.734 4.94588Q246.855 4.92787 246.975 4.90393Q247.096 4.87998 247.215 4.85016Q247.334 4.82033 247.451 4.7847Q247.569 4.74907 247.684 4.70772Q247.8 4.66637 247.913 4.6194Q248.027 4.57243 248.138 4.51995Q248.249 4.46747 248.357 4.40961Q248.465 4.35175 248.57 4.28864Q248.676 4.22554 248.778 4.15735Q248.88 4.08916 248.978 4.01604Q249.077 3.94292 249.172 3.86505Q249.267 3.78719 249.358 3.70476Q249.449 3.62233 249.536 3.53553Q249.622 3.44874 249.705 3.35779Q249.787 3.26685 249.865 3.17197Q249.943 3.07708 250.016 2.9785Q250.089 2.87991 250.157 2.77785Q250.226 2.67579 250.289 2.57051Q250.352 2.46523 250.41 2.35698Q250.467 2.24873 250.52 2.13778Q250.572 2.02682 250.619 1.91342Q250.666 1.80002 250.708 1.68445Q250.749 1.56888 250.785 1.45142Q250.82 1.33397 250.85 1.2149Q250.88 1.09584 250.904 0.975452Q250.928 0.855067 250.946 0.733652Q250.964 0.612238 250.976 0.490086Q250.988 0.367934 250.994 0.245338Q251 0.122743 251 0Z" stroke-dasharray="" stroke-linecap="round" stroke-linejoin="miter" stroke-width="10" shape-rendering="geometricPrecision" fill="#A9D8FF" transform="matrix(6.123233995736766e-17 -1 -1 -6.123233995736766e-17 360 251)" fill-rule="evenodd"></path>  <path d="M29 0Q29 -0.122743 28.994 -0.245338Q28.988 -0.367934 28.9759 -0.490086Q28.9639 -0.612238 28.9459 -0.733652Q28.9279 -0.855067 28.9039 -0.975452Q28.88 -1.09584 28.8502 -1.2149Q28.8203 -1.33397 28.7847 -1.45142Q28.7491 -1.56888 28.7077 -1.68445Q28.6664 -1.80002 28.6194 -1.91342Q28.5724 -2.02682 28.5199 -2.13778Q28.4675 -2.24873 28.4096 -2.35698Q28.3517 -2.46523 28.2886 -2.57051Q28.2255 -2.67579 28.1573 -2.77785Q28.0892 -2.87991 28.016 -2.9785Q27.9429 -3.07708 27.8651 -3.17197Q27.7872 -3.26685 27.7048 -3.35779Q27.6223 -3.44874 27.5355 -3.53553Q27.4487 -3.62233 27.3578 -3.70476Q27.2668 -3.78718 27.172 -3.86505Q27.0771 -3.94292 26.9785 -4.01604Q26.8799 -4.08916 26.7778 -4.15735Q26.6758 -4.22554 26.5705 -4.28864Q26.4652 -4.35175 26.357 -4.40961Q26.2487 -4.46747 26.1378 -4.51995Q26.0268 -4.57243 25.9134 -4.6194Q25.8 -4.66637 25.6844 -4.70772Q25.5689 -4.74907 25.4514 -4.7847Q25.334 -4.82033 25.2149 -4.85016Q25.0958 -4.87998 24.9755 -4.90393Q24.8551 -4.92787 24.7337 -4.94588Q24.6122 -4.96389 24.4901 -4.97592Q24.3679 -4.98795 24.2453 -4.99398Q24.1227 -5 24 -5L0 -5Q-0.122743 -5 -0.245338 -4.99398Q-0.367934 -4.98795 -0.490086 -4.97592Q-0.612238 -4.96389 -0.733652 -4.94588Q-0.855067 -4.92787 -0.975452 -4.90393Q-1.09584 -4.87998 -1.2149 -4.85016Q-1.33397 -4.82033 -1.45142 -4.7847Q-1.56888 -4.74907 -1.68445 -4.70772Q-1.80002 -4.66637 -1.91342 -4.6194Q-2.02682 -4.57243 -2.13778 -4.51995Q-2.24873 -4.46747 -2.35698 -4.40961Q-2.46523 -4.35175 -2.57051 -4.28864Q-2.67579 -4.22554 -2.77785 -4.15735Q-2.87991 -4.08916 -2.9785 -4.01604Q-3.07708 -3.94292 -3.17197 -3.86505Q-3.26685 -3.78719 -3.35779 -3.70476Q-3.44874 -3.62233 -3.53553 -3.53553Q-3.62233 -3.44874 -3.70476 -3.35779Q-3.78718 -3.26685 -3.86505 -3.17197Q-3.94292 -3.07708 -4.01604 -2.9785Q-4.08916 -2.87991 -4.15735 -2.77785Q-4.22554 -2.67579 -4.28864 -2.57051Q-4.35175 -2.46523 -4.40961 -2.35698Q-4.46747 -2.24873 -4.51995 -2.13778Q-4.57243 -2.02682 -4.6194 -1.91342Q-4.66637 -1.80002 -4.70772 -1.68445Q-4.74907 -1.56888 -4.7847 -1.45142Q-4.82033 -1.33397 -4.85016 -1.2149Q-4.87998 -1.09584 -4.90393 -0.975452Q-4.92787 -0.855067 -4.94588 -0.733652Q-4.96389 -0.612238 -4.97592 -0.490086Q-4.98796 -0.367934 -4.99398 -0.245338Q-5 -0.122743 -5 0Q-5 0.122743 -4.99398 0.245338Q-4.98796 0.367934 -4.97592 0.490086Q-4.96389 0.612238 -4.94588 0.733652Q-4.92787 0.855067 -4.90393 0.975452Q-4.87998 1.09584 -4.85016 1.2149Q-4.82033 1.33397 -4.7847 1.45142Q-4.74907 1.56888 -4.70772 1.68445Q-4.66637 1.80002 -4.6194 1.91342Q-4.57243 2.02682 -4.51995 2.13778Q-4.46747 2.24873 -4.40961 2.35698Q-4.35175 2.46523 -4.28864 2.57051Q-4.22554 2.67579 -4.15735 2.77785Q-4.08916 2.87991 -4.01604 2.9785Q-3.94292 3.07708 -3.86505 3.17197Q-3.78719 3.26685 -3.70476 3.35779Q-3.62233 3.44874 -3.53553 3.53553Q-3.44874 3.62233 -3.35779 3.70476Q-3.26685 3.78718 -3.17197 3.86505Q-3.07708 3.94292 -2.9785 4.01604Q-2.87991 4.08916 -2.77785 4.15735Q-2.67579 4.22554 -2.57051 4.28864Q-2.46523 4.35175 -2.35698 4.40961Q-2.24873 4.46747 -2.13778 4.51995Q-2.02682 4.57243 -1.91342 4.6194Q-1.80002 4.66637 -1.68445 4.70772Q-1.56888 4.74907 -1.45142 4.7847Q-1.33397 4.82033 -1.2149 4.85016Q-1.09584 4.87998 -0.975452 4.90393Q-0.855067 4.92787 -0.733652 4.94588Q-0.612238 4.96389 -0.490086 4.97592Q-0.367934 4.98795 -0.245338 4.99398Q-0.122743 5 0 5L24 5Q24.1227 5 24.2453 4.99398Q24.3679 4.98795 24.4901 4.97592Q24.6122 4.96389 24.7337 4.94588Q24.8551 4.92787 24.9755 4.90393Q25.0958 4.87998 25.2149 4.85016Q25.334 4.82033 25.4514 4.7847Q25.5689 4.74907 25.6844 4.70772Q25.8 4.66637 25.9134 4.6194Q26.0268 4.57243 26.1378 4.51995Q26.2487 4.46747 26.357 4.40961Q26.4652 4.35175 26.5705 4.28864Q26.6758 4.22554 26.7778 4.15735Q26.8799 4.08916 26.9785 4.01604Q27.0771 3.94292 27.172 3.86505Q27.2668 3.78719 27.3578 3.70476Q27.4487 3.62233 27.5355 3.53553Q27.6223 3.44874 27.7048 3.35779Q27.7872 3.26685 27.8651 3.17197Q27.9429 3.07708 28.016 2.9785Q28.0892 2.87991 28.1573 2.77785Q28.2255 2.67579 28.2886 2.57051Q28.3517 2.46523 28.4096 2.35698Q28.4675 2.24873 28.5199 2.13778Q28.5724 2.02682 28.6194 1.91342Q28.6664 1.80002 28.7077 1.68445Q28.7491 1.56888 28.7847 1.45142Q28.8203 1.33397 28.8502 1.2149Q28.88 1.09584 28.9039 0.975452Q28.9279 0.855067 28.9459 0.733652Q28.9639 0.612238 28.9759 0.490086Q28.988 0.367934 28.994 0.245338Q29 0.122743 29 0Z" stroke-dasharray="" stroke-linecap="round" stroke-linejoin="miter" stroke-width="10" shape-rendering="geometricPrecision" fill="#A9D8FF" transform="matrix(-1 -1.2246467991473532e-16 -1.2246467991473532e-16 1 360 251)" fill-rule="evenodd"></path> </svg>