<svg width="310" height="240" viewBox="0 0 310 240" shape-rendering="geometricPrecision" xmlns="http://www.w3.org/2000/svg" xmlns:xlink="http://www.w3.org/1999/xlink"> <defs><linearGradient id="stroke-fill-aZ0Z-3o-aZ0Z-3p" x1="3.8" y1="0" x2="-6.87" y2="0"><stop offset="0.20428798848813606" stop-color="#9ECB9F" stop-opacity="1"></stop><stop offset="0.4124086690897093" stop-color="#337AD6" stop-opacity="1"></stop></linearGradient></defs><path d="M105.301 0Q105.301 -0.122817 105.289 -0.245043Q105.277 -0.367269 105.253 -0.487726Q105.229 -0.608183 105.193 -0.725712Q105.157 -0.84324 105.11 -0.956709Q105.063 -1.07018 105.006 -1.17849Q104.948 -1.28681 104.879 -1.38893Q104.811 -1.49104 104.733 -1.58598Q104.655 -1.68092 104.569 -1.76777Q104.482 -1.85461 104.387 -1.93253Q104.292 -2.01044 104.19 -2.07867Q104.088 -2.14691 103.979 -2.2048Q103.871 -2.2627 103.757 -2.3097Q103.644 -2.3567 103.526 -2.39235Q103.409 -2.428 103.288 -2.45196Q103.168 -2.47592 103.046 -2.48796Q102.924 -2.5 102.801 -2.5L0 -2.5Q-0.122817 -2.5 -0.245043 -2.48796Q-0.367269 -2.47592 -0.487726 -2.45196Q-0.608183 -2.428 -0.725712 -2.39235Q-0.84324 -2.3567 -0.956709 -2.3097Q-1.07018 -2.2627 -1.17849 -2.2048Q-1.28681 -2.14691 -1.38893 -2.07867Q-1.49104 -2.01044 -1.58598 -1.93253Q-1.68092 -1.85461 -1.76777 -1.76777Q-1.85461 -1.68092 -1.93253 -1.58598Q-2.01044 -1.49104 -2.07867 -1.38893Q-2.14691 -1.28681 -2.2048 -1.17849Q-2.2627 -1.07018 -2.3097 -0.956709Q-2.3567 -0.84324 -2.39235 -0.725712Q-2.428 -0.608183 -2.45196 -0.487726Q-2.47592 -0.367269 -2.48796 -0.245043Q-2.5 -0.122817 -2.5 0Q-2.5 0.122817 -2.48796 0.245043Q-2.47592 0.367269 -2.45196 0.487726Q-2.428 0.608183 -2.39235 0.725712Q-2.3567 0.84324 -2.3097 0.956709Q-2.2627 1.07018 -2.2048 1.17849Q-2.14691 1.28681 -2.07867 1.38893Q-2.01044 1.49104 -1.93253 1.58598Q-1.85461 1.68092 -1.76777 1.76777Q-1.68092 1.85461 -1.58598 1.93253Q-1.49104 2.01044 -1.38893 2.07867Q-1.28681 2.14691 -1.17849 2.2048Q-1.07018 2.2627 -0.956709 2.3097Q-0.84324 2.3567 -0.725712 2.39235Q-0.608183 2.428 -0.487726 2.45196Q-0.367269 2.47592 -0.245043 2.48796Q-0.122817 2.5 0 2.5L102.801 2.5Q102.924 2.5 103.046 2.48796Q103.168 2.47592 103.288 2.45196Q103.409 2.428 103.526 2.39235Q103.644 2.3567 103.757 2.3097Q103.871 2.2627 103.979 2.2048Q104.088 2.14691 104.19 2.07867Q104.292 2.01044 104.387 1.93253Q104.482 1.85461 104.569 1.76777Q104.655 1.68092 104.733 1.58598Q104.811 1.49104 104.879 1.38893Q104.948 1.28681 105.006 1.17849Q105.063 1.07018 105.11 0.956709Q105.157 0.84324 105.193 0.725712Q105.229 0.608183 105.253 0.487726Q105.277 0.367269 105.289 0.245043Q105.301 0.122817 105.301 0Z" stroke-dasharray="" stroke-linecap="round" stroke-linejoin="miter" stroke-width="5" shape-rendering="geometricPrecision" fill="url(#stroke-fill-aZ0Z-3o-aZ0Z-3p)" transform="matrix(-0.6031082355512699 0.7976593610121014 -0.7976593610121014 -0.6031082355512699 163.99999889648979 51.99999725829008)" fill-rule="evenodd"></path>  <defs><linearGradient id="stroke-fill-aZ0Z-3g-aZ0Z-3h" x1="3.8" y1="0" x2="-6.87" y2="0"><stop offset="0.24776785714285715" stop-color="#96EFFF" stop-opacity="1"></stop><stop offset="0.362202380952381" stop-color="#7B66FF" stop-opacity="1"></stop></linearGradient></defs><path d="M129.975 0Q129.975 -0.122817 129.963 -0.245043Q129.951 -0.367269 129.927 -0.487726Q129.904 -0.608183 129.868 -0.725712Q129.832 -0.84324 129.785 -0.956709Q129.738 -1.07018 129.68 -1.17849Q129.622 -1.28681 129.554 -1.38893Q129.486 -1.49104 129.408 -1.58598Q129.33 -1.68092 129.243 -1.76777Q129.156 -1.85461 129.061 -1.93253Q128.967 -2.01044 128.864 -2.07867Q128.762 -2.14691 128.654 -2.2048Q128.546 -2.2627 128.432 -2.3097Q128.319 -2.3567 128.201 -2.39235Q128.084 -2.428 127.963 -2.45196Q127.843 -2.47592 127.721 -2.48796Q127.598 -2.5 127.475 -2.5L0 -2.5Q-0.122817 -2.5 -0.245043 -2.48796Q-0.367269 -2.47592 -0.487726 -2.45196Q-0.608183 -2.428 -0.725712 -2.39235Q-0.84324 -2.3567 -0.956709 -2.3097Q-1.07018 -2.2627 -1.17849 -2.2048Q-1.28681 -2.14691 -1.38893 -2.07867Q-1.49104 -2.01044 -1.58598 -1.93253Q-1.68092 -1.85461 -1.76777 -1.76777Q-1.85461 -1.68092 -1.93253 -1.58598Q-2.01044 -1.49104 -2.07867 -1.38893Q-2.14691 -1.28681 -2.2048 -1.17849Q-2.2627 -1.07018 -2.3097 -0.956709Q-2.3567 -0.84324 -2.39235 -0.725712Q-2.428 -0.608183 -2.45196 -0.487726Q-2.47592 -0.367269 -2.48796 -0.245043Q-2.5 -0.122817 -2.5 0Q-2.5 0.122817 -2.48796 0.245043Q-2.47592 0.367269 -2.45196 0.487726Q-2.428 0.608183 -2.39235 0.725712Q-2.3567 0.84324 -2.3097 0.956709Q-2.2627 1.07018 -2.2048 1.17849Q-2.14691 1.28681 -2.07867 1.38893Q-2.01044 1.49104 -1.93253 1.58598Q-1.85461 1.68092 -1.76777 1.76777Q-1.68092 1.85461 -1.58598 1.93253Q-1.49104 2.01044 -1.38893 2.07867Q-1.28681 2.14691 -1.17849 2.2048Q-1.07018 2.2627 -0.956709 2.3097Q-0.84324 2.3567 -0.725712 2.39235Q-0.608183 2.428 -0.487726 2.45196Q-0.367269 2.47592 -0.245043 2.48796Q-0.122817 2.5 0 2.5L127.475 2.5Q127.598 2.5 127.721 2.48796Q127.843 2.47592 127.963 2.45196Q128.084 2.428 128.201 2.39235Q128.319 2.3567 128.432 2.3097Q128.546 2.2627 128.654 2.2048Q128.762 2.14691 128.864 2.07867Q128.967 2.01044 129.061 1.93253Q129.156 1.85461 129.243 1.76777Q129.33 1.68092 129.408 1.58598Q129.486 1.49104 129.554 1.38893Q129.622 1.28681 129.68 1.17849Q129.738 1.07018 129.785 0.956709Q129.832 0.84324 129.868 0.725712Q129.904 0.608183 129.927 0.487726Q129.951 0.367269 129.963 0.245043Q129.975 0.122817 129.975 0Z" stroke-dasharray="" stroke-linecap="round" stroke-linejoin="miter" stroke-width="5" shape-rendering="geometricPrecision" fill="url(#stroke-fill-aZ0Z-3g-aZ0Z-3h)" transform="matrix(0.9021342216356465 0.43145549730400506 -0.43145549730400506 0.9021342216356465 42 70)" fill-rule="evenodd"></path>  <defs><linearGradient id="stroke-fill-ujMy-u-ujMy-v" x1="3.8" y1="0" x2="-6.87" y2="0"><stop offset="0.24776785714285715" stop-color="#96EFFF" stop-opacity="1"></stop><stop offset="0.362202380952381" stop-color="#7B66FF" stop-opacity="1"></stop></linearGradient></defs><path d="M109.701 0Q109.701 -0.122817 109.689 -0.245043Q109.677 -0.367269 109.653 -0.487726Q109.629 -0.608183 109.593 -0.725712Q109.557 -0.84324 109.51 -0.956709Q109.463 -1.07018 109.406 -1.17849Q109.348 -1.28681 109.279 -1.38893Q109.211 -1.49104 109.133 -1.58598Q109.055 -1.68092 108.969 -1.76777Q108.882 -1.85461 108.787 -1.93253Q108.692 -2.01044 108.59 -2.07867Q108.488 -2.14691 108.379 -2.2048Q108.271 -2.2627 108.157 -2.3097Q108.044 -2.3567 107.926 -2.39235Q107.809 -2.428 107.688 -2.45196Q107.568 -2.47592 107.446 -2.48796Q107.324 -2.5 107.201 -2.5L0 -2.5Q-0.122817 -2.5 -0.245043 -2.48796Q-0.367269 -2.47592 -0.487726 -2.45196Q-0.608183 -2.428 -0.725712 -2.39235Q-0.84324 -2.3567 -0.956709 -2.3097Q-1.07018 -2.2627 -1.17849 -2.2048Q-1.28681 -2.14691 -1.38893 -2.07867Q-1.49104 -2.01044 -1.58598 -1.93253Q-1.68092 -1.85461 -1.76777 -1.76777Q-1.85461 -1.68092 -1.93253 -1.58598Q-2.01044 -1.49104 -2.07867 -1.38893Q-2.14691 -1.28681 -2.2048 -1.17849Q-2.2627 -1.07018 -2.3097 -0.956709Q-2.3567 -0.84324 -2.39235 -0.725712Q-2.428 -0.608183 -2.45196 -0.487726Q-2.47592 -0.367269 -2.48796 -0.245043Q-2.5 -0.122817 -2.5 0Q-2.5 0.122817 -2.48796 0.245043Q-2.47592 0.367269 -2.45196 0.487726Q-2.428 0.608183 -2.39235 0.725712Q-2.3567 0.84324 -2.3097 0.956709Q-2.2627 1.07018 -2.2048 1.17849Q-2.14691 1.28681 -2.07867 1.38893Q-2.01044 1.49104 -1.93253 1.58598Q-1.85461 1.68092 -1.76777 1.76777Q-1.68092 1.85461 -1.58598 1.93253Q-1.49104 2.01044 -1.38893 2.07867Q-1.28681 2.14691 -1.17849 2.2048Q-1.07018 2.2627 -0.956709 2.3097Q-0.84324 2.3567 -0.725712 2.39235Q-0.608183 2.428 -0.487726 2.45196Q-0.367269 2.47592 -0.245043 2.48796Q-0.122817 2.5 0 2.5L107.201 2.5Q107.324 2.5 107.446 2.48796Q107.568 2.47592 107.688 2.45196Q107.809 2.428 107.926 2.39235Q108.044 2.3567 108.157 2.3097Q108.271 2.2627 108.379 2.2048Q108.488 2.14691 108.59 2.07867Q108.692 2.01044 108.787 1.93253Q108.882 1.85461 108.969 1.76777Q109.055 1.68092 109.133 1.58598Q109.211 1.49104 109.279 1.38893Q109.348 1.28681 109.406 1.17849Q109.463 1.07018 109.51 0.956709Q109.557 0.84324 109.593 0.725712Q109.629 0.608183 109.653 0.487726Q109.677 0.367269 109.689 0.245043Q109.701 0.122817 109.701 0Z" stroke-dasharray="" stroke-linecap="round" stroke-linejoin="miter" stroke-width="5" shape-rendering="geometricPrecision" fill="url(#stroke-fill-ujMy-u-ujMy-v)" transform="matrix(0.8022332212740241 -0.5970107693202047 0.5970107693202047 0.8022332212740241 78 206)" fill-rule="evenodd"></path>  <defs><linearGradient id="stroke-fill-aZ0Z-41-aZ0Z-42" x1="3.8" y1="0" x2="-6.87" y2="0"><stop offset="0.25899426758439337" stop-color="#B7EDB8" stop-opacity="1"></stop><stop offset="0.3053766681524028" stop-color="#94C2FF" stop-opacity="1"></stop></linearGradient></defs><path d="M161.88 0Q161.88 -0.122817 161.868 -0.245043Q161.856 -0.367269 161.832 -0.487726Q161.808 -0.608183 161.772 -0.725712Q161.737 -0.84324 161.69 -0.956709Q161.643 -1.07018 161.585 -1.17849Q161.527 -1.28681 161.459 -1.38893Q161.39 -1.49104 161.313 -1.58598Q161.235 -1.68092 161.148 -1.76777Q161.061 -1.85461 160.966 -1.93253Q160.871 -2.01044 160.769 -2.07867Q160.667 -2.14691 160.559 -2.2048Q160.45 -2.2627 160.337 -2.3097Q160.223 -2.3567 160.106 -2.39235Q159.988 -2.428 159.868 -2.45196Q159.747 -2.47592 159.625 -2.48796Q159.503 -2.5 159.38 -2.5L0 -2.5Q-0.122817 -2.5 -0.245043 -2.48796Q-0.367269 -2.47592 -0.487726 -2.45196Q-0.608183 -2.428 -0.725712 -2.39235Q-0.84324 -2.3567 -0.956709 -2.3097Q-1.07018 -2.2627 -1.17849 -2.2048Q-1.28681 -2.14691 -1.38893 -2.07867Q-1.49104 -2.01044 -1.58598 -1.93253Q-1.68092 -1.85461 -1.76777 -1.76777Q-1.85461 -1.68092 -1.93253 -1.58598Q-2.01044 -1.49104 -2.07867 -1.38893Q-2.14691 -1.28681 -2.2048 -1.17849Q-2.2627 -1.07018 -2.3097 -0.956709Q-2.3567 -0.84324 -2.39235 -0.725712Q-2.428 -0.608183 -2.45196 -0.487726Q-2.47592 -0.367269 -2.48796 -0.245043Q-2.5 -0.122817 -2.5 0Q-2.5 0.122817 -2.48796 0.245043Q-2.47592 0.367269 -2.45196 0.487726Q-2.428 0.608183 -2.39235 0.725712Q-2.3567 0.84324 -2.3097 0.956709Q-2.2627 1.07018 -2.2048 1.17849Q-2.14691 1.28681 -2.07867 1.38893Q-2.01044 1.49104 -1.93253 1.58598Q-1.85461 1.68092 -1.76777 1.76777Q-1.68092 1.85461 -1.58598 1.93253Q-1.49104 2.01044 -1.38893 2.07867Q-1.28681 2.14691 -1.17849 2.2048Q-1.07018 2.2627 -0.956709 2.3097Q-0.84324 2.3567 -0.725712 2.39235Q-0.608183 2.428 -0.487726 2.45196Q-0.367269 2.47592 -0.245043 2.48796Q-0.122817 2.5 0 2.5L159.38 2.5Q159.503 2.5 159.625 2.48796Q159.747 2.47592 159.868 2.45196Q159.988 2.428 160.106 2.39235Q160.223 2.3567 160.337 2.3097Q160.45 2.2627 160.559 2.2048Q160.667 2.14691 160.769 2.07867Q160.871 2.01044 160.966 1.93253Q161.061 1.85461 161.148 1.76777Q161.235 1.68092 161.313 1.58598Q161.39 1.49104 161.459 1.38893Q161.527 1.28681 161.585 1.17849Q161.643 1.07018 161.69 0.956709Q161.737 0.84324 161.772 0.725712Q161.808 0.608183 161.832 0.487726Q161.856 0.367269 161.868 0.245043Q161.88 0.122817 161.88 0Z" stroke-dasharray="" stroke-linecap="round" stroke-linejoin="miter" stroke-width="5" shape-rendering="geometricPrecision" fill="url(#stroke-fill-aZ0Z-41-aZ0Z-42)" transform="matrix(0.9474209680183219 0.3199898582130781 -0.3199898582130781 0.9474209680183219 93.99999143144089 151.00000009378795)" fill-rule="evenodd"></path>  <defs><linearGradient id="stroke-fill-aZ0Z-3q-aZ0Z-3r" x1="4.1" y1="0" x2="-6.87" y2="0"><stop offset="0.2646011669295767" stop-color="#87BBFF" stop-opacity="1"></stop><stop offset="0.4836493756183625" stop-color="#D4FFD5" stop-opacity="1"></stop></linearGradient></defs><path d="M158.362 0Q158.362 -0.122817 158.35 -0.245043Q158.338 -0.367269 158.314 -0.487726Q158.29 -0.608183 158.254 -0.725712Q158.219 -0.84324 158.172 -0.956709Q158.125 -1.07018 158.067 -1.17849Q158.009 -1.28681 157.941 -1.38893Q157.873 -1.49104 157.795 -1.58598Q157.717 -1.68092 157.63 -1.76777Q157.543 -1.85461 157.448 -1.93253Q157.353 -2.01044 157.251 -2.07867Q157.149 -2.14691 157.041 -2.2048Q156.932 -2.2627 156.819 -2.3097Q156.705 -2.3567 156.588 -2.39235Q156.47 -2.428 156.35 -2.45196Q156.229 -2.47592 156.107 -2.48796Q155.985 -2.5 155.862 -2.5L0 -2.5Q-0.122817 -2.5 -0.245043 -2.48796Q-0.367269 -2.47592 -0.487726 -2.45196Q-0.608183 -2.428 -0.725712 -2.39235Q-0.84324 -2.3567 -0.956709 -2.3097Q-1.07018 -2.2627 -1.17849 -2.2048Q-1.28681 -2.14691 -1.38893 -2.07867Q-1.49104 -2.01044 -1.58598 -1.93253Q-1.68092 -1.85461 -1.76777 -1.76777Q-1.85461 -1.68092 -1.93253 -1.58598Q-2.01044 -1.49104 -2.07867 -1.38893Q-2.14691 -1.28681 -2.2048 -1.17849Q-2.2627 -1.07018 -2.3097 -0.956709Q-2.3567 -0.84324 -2.39235 -0.725712Q-2.428 -0.608183 -2.45196 -0.487726Q-2.47592 -0.367269 -2.48796 -0.245043Q-2.5 -0.122817 -2.5 0Q-2.5 0.122817 -2.48796 0.245043Q-2.47592 0.367269 -2.45196 0.487726Q-2.428 0.608183 -2.39235 0.725712Q-2.3567 0.84324 -2.3097 0.956709Q-2.2627 1.07018 -2.2048 1.17849Q-2.14691 1.28681 -2.07867 1.38893Q-2.01044 1.49104 -1.93253 1.58598Q-1.85461 1.68092 -1.76777 1.76777Q-1.68092 1.85461 -1.58598 1.93253Q-1.49104 2.01044 -1.38893 2.07867Q-1.28681 2.14691 -1.17849 2.2048Q-1.07018 2.2627 -0.956709 2.3097Q-0.84324 2.3567 -0.725712 2.39235Q-0.608183 2.428 -0.487726 2.45196Q-0.367269 2.47592 -0.245043 2.48796Q-0.122817 2.5 0 2.5L155.862 2.5Q155.985 2.5 156.107 2.48796Q156.229 2.47592 156.35 2.45196Q156.47 2.428 156.588 2.39235Q156.705 2.3567 156.819 2.3097Q156.932 2.2627 157.041 2.2048Q157.149 2.14691 157.251 2.07867Q157.353 2.01044 157.448 1.93253Q157.543 1.85461 157.63 1.76777Q157.717 1.68092 157.795 1.58598Q157.873 1.49104 157.941 1.38893Q158.009 1.28681 158.067 1.17849Q158.125 1.07018 158.172 0.956709Q158.219 0.84324 158.254 0.725712Q158.29 0.608183 158.314 0.487726Q158.338 0.367269 158.35 0.245043Q158.362 0.122817 158.362 0Z" stroke-dasharray="" stroke-linecap="round" stroke-linejoin="miter" stroke-width="5" shape-rendering="geometricPrecision" fill="url(#stroke-fill-aZ0Z-3q-aZ0Z-3r)" transform="matrix(0.39778748559096905 0.9174775835448049 -0.9174775835448049 0.39778748559096905 189.99999999999994 37)" fill-rule="evenodd"></path>  <defs><linearGradient id="stroke-fill-ujMy-s-ujMy-t" x1="3.8" y1="0" x2="-6.87" y2="0"><stop offset="0.29399641362322265" stop-color="#7B66FF" stop-opacity="1"></stop><stop offset="0.3454814763478516" stop-color="#94E6FF" stop-opacity="1"></stop><stop offset="0.7522321428571428" stop-color="#96EFFF" stop-opacity="1"></stop></linearGradient></defs><path d="M92.8383 0Q92.8383 -0.122817 92.8262 -0.245043Q92.8142 -0.367269 92.7902 -0.487726Q92.7663 -0.608183 92.7306 -0.725712Q92.695 -0.84324 92.6479 -0.956709Q92.601 -1.07018 92.5431 -1.17849Q92.4852 -1.28681 92.4169 -1.38893Q92.3487 -1.49104 92.2708 -1.58598Q92.1929 -1.68092 92.106 -1.76777Q92.0192 -1.85461 91.9242 -1.93253Q91.8293 -2.01044 91.7272 -2.07867Q91.6251 -2.14691 91.5167 -2.2048Q91.4084 -2.2627 91.295 -2.3097Q91.1815 -2.3567 91.064 -2.39235Q90.9464 -2.428 90.826 -2.45196Q90.7055 -2.47592 90.5833 -2.48796Q90.4611 -2.5 90.3383 -2.5L0 -2.5Q-0.122817 -2.5 -0.245043 -2.48796Q-0.367269 -2.47592 -0.487726 -2.45196Q-0.608183 -2.428 -0.725712 -2.39235Q-0.84324 -2.3567 -0.956709 -2.3097Q-1.07018 -2.2627 -1.17849 -2.2048Q-1.28681 -2.14691 -1.38893 -2.07867Q-1.49104 -2.01044 -1.58598 -1.93253Q-1.68092 -1.85461 -1.76777 -1.76777Q-1.85461 -1.68092 -1.93253 -1.58598Q-2.01044 -1.49104 -2.07867 -1.38893Q-2.14691 -1.28681 -2.2048 -1.17849Q-2.2627 -1.07018 -2.3097 -0.956709Q-2.3567 -0.84324 -2.39235 -0.725712Q-2.428 -0.608183 -2.45196 -0.487726Q-2.47592 -0.367269 -2.48796 -0.245043Q-2.5 -0.122817 -2.5 0Q-2.5 0.122817 -2.48796 0.245043Q-2.47592 0.367269 -2.45196 0.487726Q-2.428 0.608183 -2.39235 0.725712Q-2.3567 0.84324 -2.3097 0.956709Q-2.2627 1.07018 -2.2048 1.17849Q-2.14691 1.28681 -2.07867 1.38893Q-2.01044 1.49104 -1.93253 1.58598Q-1.85461 1.68092 -1.76777 1.76777Q-1.68092 1.85461 -1.58598 1.93253Q-1.49104 2.01044 -1.38893 2.07867Q-1.28681 2.14691 -1.17849 2.2048Q-1.07018 2.2627 -0.956709 2.3097Q-0.84324 2.3567 -0.725712 2.39235Q-0.608183 2.428 -0.487726 2.45196Q-0.367269 2.47592 -0.245043 2.48796Q-0.122817 2.5 0 2.5L90.3383 2.5Q90.4611 2.5 90.5833 2.48796Q90.7055 2.47592 90.826 2.45196Q90.9464 2.428 91.064 2.39235Q91.1815 2.3567 91.295 2.3097Q91.4084 2.2627 91.5167 2.2048Q91.6251 2.14691 91.7272 2.07867Q91.8293 2.01044 91.9242 1.93253Q92.0192 1.85461 92.106 1.76777Q92.1929 1.68092 92.2708 1.58598Q92.3487 1.49104 92.4169 1.38893Q92.4852 1.28681 92.5431 1.17849Q92.601 1.07018 92.6479 0.956709Q92.695 0.84324 92.7306 0.725712Q92.7663 0.608183 92.7902 0.487726Q92.8142 0.367269 92.8262 0.245043Q92.8383 0.122817 92.8383 0Z" stroke-dasharray="" stroke-linecap="round" stroke-linejoin="miter" stroke-width="5" shape-rendering="geometricPrecision" fill="url(#stroke-fill-ujMy-s-ujMy-t)" transform="matrix(0.8966301327206134 -0.44278031245462474 0.44278031245462474 0.8966301327206134 197 122)" fill-rule="evenodd"></path> <defs><radialGradient id="fill-aZ0Z-q-aZ0Z-r" fx="0.5" fy="0" cx="0.5" cy="0" r="1" gradientTransform="translate(0.5, 0), scale(1,1), rotate(90), scale(1, 1.2375248670578003), translate(-0.5, 0)"><stop offset="0" stop-color="#B7E3FF" stop-opacity="1"></stop><stop offset="0.6293479204177856" stop-color="#9CFFB1" stop-opacity="1"></stop><stop offset="1" stop-color="#689993" stop-opacity="1"></stop></radialGradient></defs><path d="M30 60C46.5685 60 60 46.5685 60 30C60 13.4315 46.5685 0 30 0C13.4315 0 0 13.4315 0 30C0 46.5685 13.4315 60 30 60Z" shape-rendering="geometricPrecision" fill="url(#fill-aZ0Z-q-aZ0Z-r)" style="fill-rule:evenodd" transform="matrix(1 0 0 1 152 0)"></path><defs><radialGradient id="fill-aZ0Z-5d-aZ0Z-5e" fx="0.5" fy="0" cx="0.5" cy="0" r="1" gradientTransform="translate(0.5, 0), scale(1,1), rotate(90), scale(1, 1.2375248670578003), translate(-0.5, 0)"><stop offset="0" stop-color="#B7E3FF" stop-opacity="1"></stop><stop offset="0.6293479204177856" stop-color="#9CFFB1" stop-opacity="1"></stop><stop offset="1" stop-color="#689993" stop-opacity="1"></stop></radialGradient></defs><path d="M35 70C54.33 70 70 54.33 70 35C70 15.67 54.33 0 35 0C15.67 0 0 15.67 0 35C0 54.33 15.67 70 35 70Z" shape-rendering="geometricPrecision" fill="url(#fill-aZ0Z-5d-aZ0Z-5e)" style="fill-rule:evenodd" transform="matrix(1 0 0 1 227 155)"></path><defs><radialGradient id="fill-aZ0Z-5a-aZ0Z-5b" fx="0.5" fy="0" cx="0.5" cy="0" r="1" gradientTransform="translate(0.5, 0), scale(1,1), rotate(90), scale(1, 1.2375248670578003), translate(-0.5, 0)"><stop offset="0" stop-color="#B7E3FF" stop-opacity="1"></stop><stop offset="0.6293479204177856" stop-color="#9CFFB1" stop-opacity="1"></stop><stop offset="1" stop-color="#689993" stop-opacity="1"></stop></radialGradient></defs><path d="M24 48C37.2548 48 48 37.2548 48 24C48 10.7452 37.2548 0 24 0C10.7452 0 0 10.7452 0 24C0 37.2548 10.7452 48 24 48Z" shape-rendering="geometricPrecision" fill="url(#fill-aZ0Z-5a-aZ0Z-5b)" style="fill-rule:evenodd" transform="matrix(1 0 0 1 61 112)"></path><defs><radialGradient id="fill-ujMy-9-ujMy-a" fx="0.7282861531709464" fy="0.7602369980250165" cx="0.7282861531709464" cy="0.7602369980250165" r="1.108206332830495" gradientTransform="translate(0.7282861531709464, 0.7602369980250165), scale(1,1), rotate(205.93080646265184), scale(1, 1.080116840283526), translate(-0.7282861531709464, -0.7602369980250165)"><stop offset="0.21428571428571438" stop-color="#7B66FF" stop-opacity="1"></stop><stop offset="0.4880952466101873" stop-color="#5FBDFF" stop-opacity="1"></stop><stop offset="0.7010348652090345" stop-color="#96EFFF" stop-opacity="1"></stop><stop offset="0.863095238095238" stop-color="#C5FFF8" stop-opacity="1"></stop></radialGradient></defs><path d="M32.5 65C50.4493 65 65 50.4493 65 32.5C65 14.5507 50.4493 0 32.5 0C14.5507 0 0 14.5507 0 32.5C0 50.4493 14.5507 65 32.5 65Z" shape-rendering="geometricPrecision" fill="url(#fill-ujMy-9-ujMy-a)" style="fill-rule:evenodd" transform="matrix(1 0 0 1 0 32)"></path><defs><radialGradient id="fill-ujMy-h-ujMy-i" fx="0.7282861531709464" fy="0.7602369980250165" cx="0.7282861531709464" cy="0.7602369980250165" r="1.108206332830495" gradientTransform="translate(0.7282861531709464, 0.7602369980250165), scale(1,1), rotate(205.93080646265184), scale(1, 1.080116840283526), translate(-0.7282861531709464, -0.7602369980250165)"><stop offset="0.21428571428571438" stop-color="#7B66FF" stop-opacity="1"></stop><stop offset="0.4880952466101873" stop-color="#5FBDFF" stop-opacity="1"></stop><stop offset="0.7010348652090345" stop-color="#96EFFF" stop-opacity="1"></stop><stop offset="0.863095238095238" stop-color="#C5FFF8" stop-opacity="1"></stop></radialGradient></defs><path d="M35 70C54.33 70 70 54.33 70 35C70 15.67 54.33 0 35 0C15.67 0 0 15.67 0 35C0 54.33 15.67 70 35 70Z" shape-rendering="geometricPrecision" fill="url(#fill-ujMy-h-ujMy-i)" style="fill-rule:evenodd" transform="matrix(1 0 0 1 142 93)"></path><defs><radialGradient id="fill-ujMy-k-ujMy-l" fx="0.7282861531709464" fy="0.7602369980250165" cx="0.7282861531709464" cy="0.7602369980250165" r="1.108206332830495" gradientTransform="translate(0.7282861531709464, 0.7602369980250165), scale(1,1), rotate(205.93080646265184), scale(1, 1.080116840283526), translate(-0.7282861531709464, -0.7602369980250165)"><stop offset="0.21428571428571438" stop-color="#7B66FF" stop-opacity="1"></stop><stop offset="0.4880952466101873" stop-color="#5FBDFF" stop-opacity="1"></stop><stop offset="0.7010348652090345" stop-color="#96EFFF" stop-opacity="1"></stop><stop offset="0.863095238095238" stop-color="#C5FFF8" stop-opacity="1"></stop></radialGradient></defs><path d="M30 60C46.5685 60 60 46.5685 60 30C60 13.4315 46.5685 0 30 0C13.4315 0 0 13.4315 0 30C0 46.5685 13.4315 60 30 60Z" shape-rendering="geometricPrecision" fill="url(#fill-ujMy-k-ujMy-l)" style="fill-rule:evenodd" transform="matrix(1 0 0 1 42 180)"></path><defs><radialGradient id="fill-ujMy-n-ujMy-o" fx="0.8751051029902593" fy="0.766588666376433" cx="0.8751051029902593" cy="0.766588666376433" r="1.3018269598433976" gradientTransform="translate(0.8751051029902593, 0.766588666376433), scale(1,1), rotate(194.71965971749324), scale(1, 1.080116840283526), translate(-0.8751051029902593, -0.766588666376433)"><stop offset="0.21428571428571438" stop-color="#7B66FF" stop-opacity="1"></stop><stop offset="0.4880952466101873" stop-color="#5FBDFF" stop-opacity="1"></stop><stop offset="0.7010348652090345" stop-color="#96EFFF" stop-opacity="1"></stop><stop offset="0.863095238095238" stop-color="#C5FFF8" stop-opacity="1"></stop></radialGradient></defs><path d="M24 48C37.2548 48 48 37.2548 48 24C48 10.7452 37.2548 0 24 0C10.7452 0 0 10.7452 0 24C0 37.2548 10.7452 48 24 48Z" shape-rendering="geometricPrecision" fill="url(#fill-ujMy-n-ujMy-o)" style="fill-rule:evenodd" transform="matrix(1 0 0 1 262 52)"></path></svg>